<svg version="1.1" xmlns="http://www.w3.org/2000/svg" xmlns:xlink="http://www.w3.org/1999/xlink" x="0px" y="0px"
	 width="210px" height="150px" viewBox="0 0 210 150" enable-background="new 0 0 210 150" xml:space="preserve">
	<g>
		<g>
			<path fill="#FFC000" d="M139.102,102.827c1.199-0.932,1.59-2.488,0.902-3.779c0.217-0.158,0.4-0.354,0.525-0.599
				c0.418-0.817-0.121-1.63-0.721-2.177l0.238-0.785c0.633-2.088-0.064-4.35-1.764-5.719l-12.455-10.035
				c-0.82,0.182-1.676,0.215-2.506,0.101c-1.006-0.138-2.027-0.497-2.807-1.163c-0.688-0.59-1.109-1.424-1.029-2.34
				c0.041-0.482,0.205-0.934,0.439-1.353l-10.66-8.589c-1.254-1.01-2.896-1.402-4.47-1.067l-29.864,6.349
				c-2.726,0.58-4.55,3.154-4.196,5.917c-0.764,0.446-1.332,1.151-1.405,2.122c-0.05,0.658,0.171,1.305,0.516,1.866
				c0.196,0.319,0.558,0.565,0.729,0.887c0.089,0.165,0.15,0.231,0.193,0.251c-0.026,0.08-0.058,0.217-0.091,0.438
				c-0.237,1.56-0.875,2.615-0.508,4.289c0.336,1.538,1.151,2.838,2.342,3.848l0.14,1.078c-0.135,0.051-0.267,0.106-0.394,0.175
				c-0.307,0.167-0.568,0.364-0.754,0.665c-0.06,0.095-0.111,0.164-0.139,0.268c-0.035,0.133-0.072,0.303-0.039,0.443
				c0.031,0.229,0.139,0.413,0.322,0.555c0.148,0.123,0.315,0.207,0.496,0.261c-0.572,0.481-0.947,1.147-0.915,1.997
				c0.054,1.373,1.263,2.275,2.362,2.896l0.389,3c-0.285,0.207-0.525,0.474-0.679,0.816c-0.212,0.474-0.235,0.973-0.019,1.457
				c0.232,0.517,0.713,0.848,1.236,1.024c0.574,1.685,1.961,3.001,3.73,3.456l48.468,12.45c2.775,0.714,5.623-0.889,6.453-3.633
				l0.895-2.952c1.307-0.556,2.381-1.633,2.645-3.012c0.207-1.068-0.068-2.182-0.869-2.852l1.83-6.043
				C138.203,103.273,138.727,103.117,139.102,102.827z"/>
			<path fill="#FFE053" d="M138.283,89.769l-12.455-10.035c-0.82,0.182-1.676,0.215-2.506,0.101
				c-1.006-0.138-2.027-0.497-2.807-1.163c-0.688-0.59-1.109-1.424-1.029-2.34c0.041-0.482,0.205-0.934,0.439-1.353l-10.66-8.589
				c-1.254-1.01-2.896-1.402-4.47-1.067l-29.864,6.349c-1.308,0.277-2.403,1.018-3.155,2.014c4.736,1.385,9.373,3.086,13.961,4.895
				c4.982,1.963,9.916,4.05,14.9,6.012c4.967,1.955,9.99,3.792,15.134,5.23c2.535,0.71,5.1,1.322,7.688,1.802
				c2.514,0.466,5.051,0.747,7.584,1.073c2.18,0.281,4.387,0.528,6.586,0.34c0.844-0.072,1.672-0.219,2.475-0.439
				C139.82,91.506,139.199,90.507,138.283,89.769z"/>
			<path fill="#FBA000" d="M115.574,95.866c-0.543,3.26-4.4,6.422-8.283,4.475c-2.812-1.412-4.832-7.541-1.927-9.804
				c1.535-1.196,4.333-0.562,6.029-0.067C114.455,91.362,115.949,93.604,115.574,95.866z"/>
			<path opacity="0.22" fill="#FFC000" d="M107.131,91.937c2.152,0.758,3.729,2.654,4.682,4.663c0.494,1.041,0.859,2.185,1.033,3.35
				c1.434-0.964,2.467-2.511,2.729-4.083c0.375-2.263-1.119-4.504-4.182-5.396c-1.695-0.494-4.494-1.129-6.029,0.067
				c-0.393,0.306-0.693,0.685-0.916,1.111C105.348,91.544,106.26,91.63,107.131,91.937z"/>
			
				<ellipse transform="matrix(0.984 0.178 -0.178 0.984 17.8035 -14.0661)" fill="#FBA000" cx="87.298" cy="92.193" rx="4.131" ry="3.865"/>
			<path opacity="0.38" fill="#FFC000" d="M85.734,89.823c1.623,0.223,2.863,1.539,3.728,2.836c0.416,0.624,0.781,1.289,1.095,1.979
				c0.404-0.479,0.689-1.059,0.807-1.709c0.38-2.101-1.132-4.133-3.378-4.538c-1.717-0.311-3.362,0.421-4.213,1.722
				C84.392,89.856,85.056,89.731,85.734,89.823z"/>
			<circle fill="#FBA000" cx="98.339" cy="106.785" r="2.931"/>
			
				<ellipse transform="matrix(0.9841 0.1778 -0.1778 0.9841 20.1258 -21.9463)" fill="#FBA000" cx="132.509" cy="101.316" rx="2.266" ry="2.931"/>
			
				<ellipse transform="matrix(0.9841 0.1779 -0.1779 0.9841 22.0945 -19.1191)" fill="#FBA000" cx="117.68" cy="113.667" rx="2.666" ry="2.799"/>
			<path opacity="0.38" fill="#FFC000" d="M96.927,105.27c1.732,0.192,3.171,1.257,4.105,2.671c0.084-0.199,0.152-0.411,0.191-0.634
				c0.289-1.593-0.77-3.118-2.363-3.407c-1.23-0.223-2.417,0.36-3.028,1.37C96.194,105.229,96.561,105.229,96.927,105.27z"/>
			<path opacity="0.38" fill="#FFC000" d="M131.738,99.919c1.174,0.75,1.932,1.933,2.41,3.227c0.281-0.398,0.49-0.883,0.59-1.427
				c0.287-1.594-0.477-3.065-1.709-3.288c-0.811-0.147-1.623,0.289-2.164,1.059C131.17,99.603,131.463,99.743,131.738,99.919z"/>
			<path opacity="0.38" fill="#FFC000" d="M116.346,111.674c1.109,0.276,1.906,1.181,2.393,2.174c0.301,0.618,0.5,1.299,0.584,1.991
				c0.492-0.412,0.855-1.001,0.98-1.697c0.275-1.521-0.676-2.967-2.125-3.229c-0.842-0.152-1.664,0.131-2.262,0.691
				C116.061,111.616,116.205,111.638,116.346,111.674z"/>
			
				<ellipse transform="matrix(0.984 0.1779 -0.1779 0.984 15.3064 -13.9819)" fill="#FFD925" cx="85.604" cy="78.344" rx="4.264" ry="3.332"/>
			<path opacity="0.63" fill="#FFC000" d="M88.401,79.729c-1.273-0.342-2.563-0.631-3.812-1.06c-1.079-0.371-2.164-0.859-3.015-1.637
				c-0.074,0.177-0.133,0.359-0.168,0.552c-0.328,1.812,1.285,3.619,3.604,4.038c1.891,0.341,3.664-0.347,4.432-1.594
				C89.099,79.921,88.751,79.822,88.401,79.729z"/>
			
				<ellipse transform="matrix(0.6996 0.7146 -0.7146 0.6996 102.3383 -47.3786)" fill="#FFE053" cx="107.515" cy="98.018" rx="1.174" ry="0.988"/>
			
				<ellipse transform="matrix(0.7001 0.714 -0.714 0.7001 82.3637 -35.7249)" fill="#FFE053" cx="83.712" cy="80.19" rx="0.561" ry="0.472"/>
			
				<ellipse transform="matrix(0.7005 0.7136 -0.7136 0.7005 93.1979 -33.397)" fill="#FFE053" cx="86.392" cy="94.347" rx="0.56" ry="0.471"/>
			
				<ellipse transform="matrix(0.7005 0.7136 -0.7136 0.7005 105.8055 -37.1187)" fill="#FFE053" cx="97.13" cy="107.508" rx="0.56" ry="0.471"/>
			
				<ellipse transform="matrix(0.7001 0.714 -0.714 0.7001 117.3869 -49.0165)" fill="#FFE053" cx="117.047" cy="115.239" rx="0.561" ry="0.471"/>
			
				<ellipse transform="matrix(0.7005 0.7136 -0.7136 0.7005 112.8403 -63.7733)" fill="#FFE053" cx="132.406" cy="102.563" rx="0.56" ry="0.471"/>
			<path fill="#FFC000" d="M112.523,78.341c-0.371,2.053-4.682,2.059-8.343,1.396c-3.66-0.662-6.328-2.862-5.957-4.914
				c0.371-2.053,3.64-3.18,7.3-2.518C109.186,72.968,112.895,76.289,112.523,78.341z"/>
			<path opacity="0.2" fill="#FFC000" d="M104.833,79.397c-0.643-0.914-0.926-2.012-0.781-3.121c0.168-1.285,0.973-2.446,2.115-3.057
				c0.367-0.195,0.756-0.326,1.148-0.389c-0.586-0.234-1.189-0.416-1.791-0.525c-3.66-0.662-6.93,0.465-7.3,2.518
				c-0.371,2.052,2.296,4.252,5.957,4.914c0.352,0.063,0.707,0.121,1.066,0.171C105.1,79.745,104.959,79.576,104.833,79.397z"/>
		</g>
	</g>
</svg>
