<svg version="1.1" xmlns="http://www.w3.org/2000/svg" xmlns:xlink="http://www.w3.org/1999/xlink" x="0px" y="0px"
	 width="300px" height="500px" viewBox="0 0 300 500" enable-background="new 0 0 300 500" xml:space="preserve">
	<g>
		<g>
			<path fill="#FFC000" d="M266.621,82.257c1.669-1.297,2.214-3.464,1.255-5.261c0.303-0.22,0.559-0.492,0.732-0.833
				c0.582-1.138-0.168-2.269-1.003-3.031l0.332-1.093c0.881-2.907-0.091-6.056-2.457-7.962l-17.339-13.971
				c-1.143,0.253-2.333,0.299-3.49,0.14c-1.398-0.192-2.822-0.692-3.906-1.619c-0.957-0.821-1.544-1.982-1.434-3.258
				c0.059-0.671,0.287-1.3,0.613-1.883l-14.841-11.958c-1.746-1.406-4.032-1.953-6.226-1.486l-41.576,8.839
				c-3.795,0.808-6.336,4.392-5.842,8.238c-1.063,0.621-1.855,1.603-1.957,2.954c-0.068,0.917,0.238,1.816,0.718,2.598
				c0.272,0.445,0.776,0.787,1.015,1.235c0.123,0.229,0.209,0.322,0.27,0.349c-0.038,0.111-0.082,0.302-0.128,0.609
				c-0.329,2.171-1.218,3.641-0.707,5.971c0.469,2.141,1.604,3.951,3.261,5.357l0.195,1.501c-0.188,0.07-0.373,0.148-0.548,0.243
				c-0.427,0.232-0.792,0.507-1.05,0.926c-0.084,0.132-0.155,0.229-0.193,0.373c-0.049,0.185-0.1,0.421-0.055,0.617
				c0.044,0.318,0.193,0.575,0.449,0.772c0.207,0.171,0.439,0.288,0.69,0.363c-0.796,0.67-1.319,1.598-1.274,2.78
				c0.075,1.912,1.76,3.168,3.29,4.033l0.541,4.177c-0.398,0.288-0.731,0.659-0.946,1.137c-0.295,0.659-0.327,1.354-0.024,2.028
				c0.322,0.719,0.991,1.18,1.721,1.426c0.8,2.345,2.73,4.178,5.193,4.812l67.478,17.333c3.865,0.994,7.828-1.237,8.985-5.058
				l1.245-4.11c1.819-0.773,3.313-2.273,3.682-4.193c0.287-1.487-0.096-3.037-1.21-3.97l2.548-8.413
				C265.37,82.878,266.099,82.661,266.621,82.257z"/>
			<path fill="#FFE053" d="M265.48,64.077l-17.339-13.971c-1.143,0.253-2.333,0.299-3.49,0.14c-1.398-0.192-2.822-0.692-3.906-1.619
				c-0.957-0.821-1.544-1.982-1.434-3.258c0.059-0.671,0.287-1.3,0.613-1.883l-14.841-11.958c-1.746-1.406-4.032-1.953-6.226-1.486
				l-41.576,8.839c-1.82,0.386-3.346,1.417-4.393,2.803c6.593,1.928,13.049,4.296,19.436,6.814c6.938,2.733,13.807,5.638,20.745,8.37
				c6.915,2.722,13.909,5.279,21.069,7.282c3.531,0.989,7.101,1.841,10.703,2.509c3.5,0.648,7.031,1.04,10.558,1.494
				c3.034,0.392,6.108,0.735,9.171,0.473c1.174-0.101,2.326-0.305,3.445-0.612C267.622,66.495,266.757,65.104,265.48,64.077z"/>
			<path fill="#FBA000" d="M233.864,72.566c-0.754,4.538-6.125,8.94-11.53,6.229c-3.914-1.966-6.728-10.499-2.685-13.649
				c2.139-1.666,6.033-0.782,8.395-0.094C232.309,66.295,234.388,69.416,233.864,72.566z"/>
			<path opacity="0.22" fill="#FFC000" d="M222.11,67.095c2.998,1.055,5.192,3.695,6.519,6.492c0.687,1.449,1.196,3.042,1.438,4.664
				c1.996-1.342,3.435-3.496,3.798-5.685c0.523-3.15-1.556-6.271-5.82-7.513c-2.361-0.688-6.256-1.572-8.395,0.094
				c-0.547,0.426-0.964,0.953-1.274,1.547C219.629,66.548,220.898,66.668,222.11,67.095z"/>
			
				<ellipse transform="matrix(0.984 0.178 -0.178 0.984 15.1111 -33.5408)" fill="#FBA000" cx="194.499" cy="67.452" rx="5.752" ry="5.381"/>
			<path opacity="0.38" fill="#FFC000" d="M192.321,64.153c2.26,0.31,3.986,2.143,5.189,3.948c0.58,0.869,1.088,1.794,1.524,2.754
				c0.563-0.667,0.96-1.474,1.123-2.379c0.529-2.924-1.576-5.753-4.702-6.318c-2.391-0.432-4.682,0.586-5.865,2.397
				C190.452,64.199,191.377,64.025,192.321,64.153z"/>
			<circle fill="#FBA000" cx="209.87" cy="87.768" r="4.082"/>
			
				<ellipse transform="matrix(0.9841 0.1778 -0.1778 0.9841 18.3551 -44.5)" fill="#FBA000" cx="257.442" cy="80.153" rx="3.154" ry="4.081"/>
			
				<ellipse transform="matrix(0.9841 0.1779 -0.1779 0.9841 21.0942 -40.5711)" fill="#FBA000" cx="236.797" cy="97.349" rx="3.711" ry="3.897"/>
			<path opacity="0.38" fill="#FFC000" d="M207.903,85.657c2.411,0.268,4.416,1.75,5.715,3.719c0.119-0.277,0.213-0.572,0.269-0.882
				c0.401-2.218-1.073-4.341-3.29-4.744c-1.714-0.31-3.367,0.501-4.217,1.907C206.884,85.602,207.394,85.602,207.903,85.657z"/>
			<path opacity="0.38" fill="#FFC000" d="M256.368,78.208c1.636,1.044,2.689,2.691,3.357,4.492c0.392-0.555,0.682-1.229,0.82-1.986
				c0.4-2.219-0.664-4.268-2.379-4.578c-1.129-0.206-2.26,0.402-3.013,1.474C255.579,77.768,255.986,77.963,256.368,78.208z"/>
			<path opacity="0.38" fill="#FFC000" d="M234.94,94.574c1.543,0.385,2.654,1.644,3.329,3.026c0.421,0.86,0.696,1.808,0.813,2.772
				c0.687-0.574,1.191-1.394,1.366-2.363c0.384-2.117-0.94-4.13-2.958-4.495c-1.172-0.212-2.317,0.182-3.148,0.962
				C234.543,94.493,234.743,94.523,234.94,94.574z"/>
			
				<ellipse transform="matrix(0.984 0.1779 -0.1779 0.984 11.6361 -33.4168)" fill="#FFD925" cx="192.14" cy="48.171" rx="5.938" ry="4.64"/>
			<path opacity="0.63" fill="#FFC000" d="M196.034,50.1c-1.772-0.476-3.568-0.878-5.306-1.475c-1.503-0.517-3.013-1.196-4.197-2.279
				c-0.104,0.246-0.186,0.5-0.234,0.768c-0.456,2.522,1.79,5.039,5.018,5.622c2.632,0.475,5.102-0.482,6.171-2.219
				C197.005,50.367,196.521,50.229,196.034,50.1z"/>
			
				<ellipse transform="matrix(0.6998 0.7144 -0.7144 0.6998 120.8288 -136.3681)" fill="#FFE053" cx="222.646" cy="75.561" rx="1.635" ry="1.376"/>
			
				<ellipse transform="matrix(0.6997 0.7144 -0.7144 0.6997 93.157 -120.1502)" fill="#FFE053" cx="189.506" cy="50.742" rx="0.78" ry="0.657"/>
			
				<ellipse transform="matrix(0.7002 0.714 -0.714 0.7002 108.2348 -116.8411)" fill="#FFE053" cx="193.236" cy="70.451" rx="0.78" ry="0.656"/>
			
				<ellipse transform="matrix(0.7 0.7141 -0.7141 0.7 125.8455 -122.0402)" fill="#FFE053" cx="208.188" cy="88.774" rx="0.78" ry="0.658"/>
			
				<ellipse transform="matrix(0.7 0.7141 -0.7141 0.7 141.8475 -138.6124)" fill="#FFE053" cx="235.917" cy="99.537" rx="0.781" ry="0.656"/>
			<path fill="#FFE053" d="M257.847,82.446c-0.259,0.254-0.713,0.21-1.015-0.098s-0.337-0.763-0.079-1.016
				c0.262-0.255,0.715-0.211,1.018,0.097C258.071,81.738,258.106,82.192,257.847,82.446z"/>
			<path fill="#FFC000" d="M229.617,48.167c-0.517,2.858-6.517,2.866-11.614,1.944c-5.096-0.922-8.81-3.985-8.293-6.841
				c0.518-2.858,5.067-4.427,10.164-3.505C224.97,40.687,230.134,45.31,229.617,48.167z"/>
			<path opacity="0.2" fill="#FFC000" d="M218.912,49.638c-0.896-1.272-1.289-2.801-1.088-4.345c0.232-1.789,1.353-3.406,2.944-4.255
				c0.512-0.272,1.051-0.454,1.599-0.541c-0.815-0.327-1.655-0.579-2.493-0.731c-5.097-0.922-9.646,0.647-10.164,3.505
				c-0.517,2.856,3.197,5.919,8.293,6.841c0.488,0.088,0.984,0.168,1.484,0.238C219.284,50.122,219.089,49.887,218.912,49.638z"/>
		</g>
	</g>
	<g>
		<path fill-rule="evenodd" clip-rule="evenodd" fill="#FFFFFF" d="M170.986,174.367c9.61,10.555,14.035,22.09,9.884,25.76
			c-4.151,3.668-15.311-1.918-24.92-12.471c-9.61-10.557-14.037-22.094-9.884-25.761
			C150.217,158.227,161.376,163.811,170.986,174.367L170.986,174.367z"/>
		<path fill-rule="evenodd" clip-rule="evenodd" fill="#E20613" d="M174.529,258.179c-3.761-8.592-8.907-11.002-15.371-2.625
			c-2.667-6.805-7.76-2.849-11.829,2.41c2.613,5.16,6.519,10.058,12.248,14.596c4.891,3.467,8.818,4.549,11.994,3.781
			C175.118,271.44,175.97,262.677,174.529,258.179L174.529,258.179z"/>
		<path fill-rule="evenodd" clip-rule="evenodd" fill="#FFFADB" d="M192.022,220.24c-1.967,4.049-4.291,8.316-6.073,13.257
			c-2.888,8.014-4.48,18.023-4.506,28.537c-2.026,7.774-5.089,13.146-9.872,14.307c-3.176,0.768-7.104-0.314-11.994-3.781
			c-5.729-4.538-9.634-9.436-12.248-14.596c-1.835-3.627-3.031-7.382-3.771-11.228c-5.479,3.923-10.715,8.125-15.691,12.611
			c2.152,4.221,5.502,8.969,9.723,14.408c5.279,0.706,14.814,4.926,20.163,12.219c-1.527-2.651-4.264-7.327-5.792-9.979
			c3.824,3.825,4.576,5.319,10.975,8.411c15.126,4.074,21.979-2.607,21.976-18.2l1.502-8.304l0.036,5.972
			c0.012,2.207,7.512-6.106,7.899-9.266c3.516-11.196,5.786-22.196,6.065-32.493c-0.178-6.65-1.837-10.441-4.717-11.861
			c-0.369,1.989-1.012,3.941-1.819,5.908C193.325,217.574,192.702,218.947,192.022,220.24L192.022,220.24z M174.03,204.813
			c-6.088,0.789-10.703,4.024-13.792,9.217c-0.994,3.101-1.472,6.924-9.754,5.577c-1.211,3.005-1.481,5.739-1.048,8.142
			c6.139-0.676,12.305-1.173,18.487-1.494l0.023,0.414l0.02,0.415c-6.137,0.32-12.258,0.813-18.351,1.481
			c0.971,3.803,3.753,6.702,7.324,8.441c2.659-1.561,5.365-3.061,8.115-4.497l0.191,0.369l0.192,0.366
			c-2.556,1.35-5.067,2.747-7.54,4.195c7.781,3.227,18.634,1.236,23.006-8.34c3.84,1.234,8.051-3.004,11.119-8.859
			c0.673-1.378,1.303-2.731,1.854-4.078c0.757-1.936,1.376-3.941,1.819-5.908c-0.145-0.984-0.316-1.927-0.521-2.818
			c-1.81,1.365-3.602,2.758-5.373,4.17l-0.261-0.326l-0.257-0.326c1.875-1.48,3.769-2.937,5.682-4.371
			c-0.555-2.094-1.324-3.891-2.432-5.277c-0.898,1.316-1.779,2.645-2.643,3.99l-0.351-0.225l-0.349-0.223
			c0.898-1.414,1.82-2.816,2.764-4.202c-2.084-2.126-5.201-3.013-9.944-2.118c-0.63,0.733-1.222,1.482-1.819,2.195
			c-0.221,0.41-0.506,0.744-0.857,0.996c-0.008,0.006-0.02,0.014-0.03,0.02C177.88,203.289,176.306,204.521,174.03,204.813
			L174.03,204.813z M181.623,217.994c-0.005-0.703-1.694-2.146-3.88-1.852c-4.897,0.661-10.885-2.187-6.334-7.008
			c0.984-1.041,3.377-3.154,5.918-2.848c4.252-4.403,7.882-3.738,8.673,0.525C186.737,210.78,184.901,214.502,181.623,217.994
			L181.623,217.994z M143.384,245.777c-0.688-3.981-0.904-8.056-0.854-12.189c-17.188,6.754-20.275,14.094-15.072,24.934
			C132.512,253.983,137.828,249.731,143.384,245.777L143.384,245.777z"/>
		<path fill-rule="evenodd" clip-rule="evenodd" fill="#EF7F3C" d="M110.354,257.036c-2.474-6.067-3.597-11.684-1.753-16.311
			c0.723-2.127,0.924-3.78,0.738-4.984c-3.495,0.872-6.977,1.812-10.439,2.816c-0.002,0.002-0.004,0.005-0.005,0.009
			c-1.732,4.672-1.749,6.565-1.86,11.645c-1.836-4.155-3.625-6.664-5.646-9.359c-3.816,1.221-7.612,2.529-11.382,3.917l-0.091,0.036
			c4.728,6.342,4.357,8.171-1.11,5.49l-10.651-5.662c-8.092-2.359-12.562,10.576,4.717,15.506c7.161,2.177,4.456,5.156-0.805,6.604
			c-12.494-0.091-8.045,9.889,2.83,8.495c3.775-0.944,4.854-2.697,8.629-3.64c5.439,4.098,10.875,7.385,16.313,4.986
			c2.638,0.278,3.651,1.365,3.046,3.266c0.746,0.951,1.491,1.9,2.239,2.843c3.927-5.137,8.115-10.032,12.546-14.675
			c-2.529-1.382-4.973-3.051-7.315-5.049V257.036L110.354,257.036z M92.275,261.623l0.098,0.575c0.627,3.136,2.057,5.691,5.389,6.372
			l0.449,0.07l3.071,1.05l-3.245,0.061c-1.237-0.242-2.373-0.666-3.384-1.315c-1.106-0.804-1.925-1.907-2.507-3.192
			c-0.523-1.355-0.817-2.469-0.98-3.432l0.021-3.246L92.275,261.623L92.275,261.623z M99.824,237.425
			c3.092-0.884,6.195-1.714,9.313-2.491C108.027,231.957,103.701,233.002,99.824,237.425L99.824,237.425z M90.858,240.147
			c-1.174-1.563-2.433-3.236-3.827-5.358c-0.902-1.312-1.786-2.52-2.643-3.574c-3.781-4.658-7.023-6.291-8.952-0.604
			c-0.277,0.821-0.459,1.651-0.54,2.493c-0.212,2.203,0.266,4.471,1.502,6.811c0.728,1.375,1.717,2.773,2.981,4.201l0.327-0.123
			C83.401,242.63,87.119,241.35,90.858,240.147L90.858,240.147z M76.398,239.915c-1.236-2.34-1.714-4.608-1.502-6.811
			c-2.875,0.057-6.22-0.182-10.074-0.768C67.473,235.979,71.404,238.436,76.398,239.915L76.398,239.915z M84.388,231.215
			c0.856,1.055,1.74,2.263,2.643,3.574c1.395,2.122,2.653,3.795,3.827,5.358c2.976-0.957,5.965-1.866,8.966-2.722
			c3.877-4.423,8.203-5.468,9.313-2.491c12.299-3.074,24.791-5.344,37.396-6.854c0.841-3.333,2.529-6.865,3.952-8.474
			c8.283,1.347,8.76-2.477,9.754-5.577c3.089-5.192,7.704-8.428,13.792-9.217c2.275-0.292,3.85-1.523,5.274-3.074
			c-3.319,2.303-11.222-3.656-17.679-13.344c-1.738-2.605-3.192-5.217-4.332-7.692c-2.35-5.106-3.338-9.615-2.634-12.255
			c0.228-0.851,0.63-1.508,1.216-1.926c-0.348-3.828-1.314-6.947-2.731-9.543c-5.6-1.176-10.961-0.916-16.377-1.373
			c-10.229-0.668-19.649,5.036-29.583,11.296c-0.739,1.212-1.365,2.405-1.754,3.444c1.427-0.809,3.732-1.755,5.26-2.158
			c-6.585,3.266-6.683,11.057-3.167,20.764c-4.783-5.45-7.459-11.569-4.312-19.547c-0.938,0.588-1.882,1.172-2.835,1.75
			c9.92-11.633,20.732-20.698,32.656-26.586c-0.322-1.107-0.63-2.219-0.921-3.327c-12.325,4.749-24.027,14-35.104,27.757
			c3.117-6.798,6.83-12.82,11.038-18.197c-0.034-0.996-0.052-1.994-0.052-2.994c-13.271,12.764-21.07,28.459-25.152,44.446
			c-6.554-1.179-13.966-5.464-19.205-6.837c-17.146-4.496-28.677-1.145-35.563,6.516C63.96,180.488,103.61,221.743,84.388,231.215
			L84.388,231.215z M125.472,195.627c-2.874-5.035-4.232-9.607-3.668-12.67c0.136-0.732,0.38-1.379,0.74-1.924
			c0.196-0.297,0.427-0.564,0.693-0.799c4.15-3.67,15.312,1.914,24.922,12.472c9.609,10.555,14.035,22.09,9.885,25.759
			c-3.269,2.89-10.875,0.045-18.656-6.445c-2.104-1.756-4.222-3.777-6.269-6.026C129.977,202.539,127.386,198.98,125.472,195.627
			L125.472,195.627z M98.9,238.558c-2.514,0.73-5.018,1.494-7.512,2.294c2.021,2.695,3.811,5.204,5.646,9.359
			c0.111-5.08,0.128-6.973,1.86-11.645L98.9,238.558L98.9,238.558z M108.601,240.725c-1.844,4.627-0.721,10.244,1.753,16.311v5.934
			c2.343,1.998,4.786,3.667,7.315,5.049c3.143-3.294,6.407-6.46,9.789-9.497c-5.203-10.839-2.115-18.179,15.072-24.934
			c1.102-0.434,2.264-0.864,3.484-1.291c-0.058-0.998,0.066-2.15,0.318-3.354c-12.471,1.504-24.824,3.755-36.994,6.798
			C109.525,236.945,109.324,238.598,108.601,240.725L108.601,240.725z M127.867,259.347c-3.238,2.916-6.369,5.949-9.389,9.102
			c5.967,3.104,12.397,4.668,19.111,5.307C133.369,268.315,130.019,263.567,127.867,259.347L127.867,259.347z M108.625,346.097
			l0.347,0.229c-3.444,5.342-6.594,14.967-5.481,21.746l0.596,1.87l0.437,3.218l-1.507-2.874l-0.735-3.553
			c-0.528-6.812,2.688-15.862,5.999-20.865L108.625,346.097L108.625,346.097z M137.589,273.755
			c-6.714-0.639-13.145-2.203-19.111-5.307c-4.514,4.718-8.782,9.697-12.795,14.945c9.303,11.623,19.021,22.006,30.217,27.949
			c0.004,0,0.006,0,0.007,0.004c-0.286,10.863-6.145,17.242-14.473,18.551c-0.063,0.01-0.122,0.02-0.184,0.026
			c-9.406-9.13-22.954-19.442-33.089-19.522c-13.969-0.11-30.542,3.152-42.508-1.396c-6.381-2.617-11.162-6.735-14.846-11.879
			c4.906,9.088,10.816,17.226,22.406,19.977c16.951,3.402,35.02-4.679,50.48,9.182l9.18,11.067c-2.521,3.375-3.68,6.067-4.186,8.432
			c-18.9,0.431-34.207,8.825-43.059,25.043c-2.192,9.337-0.184,13.061,5.535,11.829c1.154,12.292,10.696,12.693,17.143,3.56
			l2.324-7.905c-1.984,9.375,1.961,20.521,4.965,21.672c9.153,8.471,25.578-0.074,46.216-16.007
			c26.092,10.317,45.817-26.562,59.203-32.048c0.985,11.714,2.873,21.713,6.21,24.564c2.385,1.811,4.696,2.895,6.947,3.324
			c-10.361-18.664,8.068-72.818,37.731-66.491c-5.084-9.406-13.634-8.413-23.759-2.697c-1.75,1.771-3.402,3.654-4.956,5.652
			c-0.835-6.44-6.479-12.98-17.241-6.222c-1.992,24.143-17.474,46.969-35.83,61.646c-23.507,18.35-40.235-3.3-29.173-18.368
			c14.824-16.235,30.257-35.169,34.978-53.889c4.975-15.062,9.031-20.505,15.805-6.075c2.367-9.235,4.86-17.864,11.037-8.062
			c0.102,0.161,0.205,0.327,0.307,0.495c0.676,2.012,1.234,4.027,1.682,6.045c7.616-5.439,22.527-32.055,30.938-52.731
			c0.004-0.011,0.01-0.02,0.014-0.033c0.014,0.003,0.027,0.006,0.044,0.01c2.726,0.676,4.952,1.85,3.737,6.469
			c-1.709,5.667,0.182,7.735,5.669,6.209c3.295-0.901,4.623-4.049,5.396-7.83c-0.379-4.056-0.488-9.759,1.365-9.56
			c9.664-0.003,16.25-1.764,18.344-6.097c3.01-9.126-0.41-9.85-6.75-6.749c-5.313,2.787-13.592,2.608-23.217,1.078
			c-12.528,4.504-26.251,14.382-40.224,25.377c6.039-10.605,11.264-22.295,10.8-41.573c-1.003-3.102-2.032-5.723-3.081-7.918
			c-4.301,2.842-8.506,5.824-12.613,8.932c0.205,0.892,0.377,1.834,0.521,2.818c2.88,1.42,4.539,5.211,4.717,11.861
			c-0.279,10.297-2.55,21.297-6.065,32.493c-0.388,3.159-7.888,11.473-7.899,9.266l-0.036-5.972l-1.502,8.304
			c0.003,15.593-6.85,22.274-21.976,18.2c-6.398-3.092-7.15-4.586-10.975-8.411c1.528,2.651,4.265,7.327,5.792,9.979
			C152.403,278.681,142.869,274.461,137.589,273.755L137.589,273.755z M182.012,198.527c4.743-0.895,7.86-0.008,9.944,2.118
			c2.604-3.828,5.372-7.548,8.289-11.154c-3.694-1.704-7.566-0.239-11.514,2.622c-11.391-21.08-20.964-29.701-29.752-33.346
			c0.361,2.371,0.332,4.841-0.092,7.408c3.934,0.992,9.741,6.232,14.697,13.668c5.791,8.687,8.464,17.434,6.607,20.879
			C180.79,200.01,181.382,199.261,182.012,198.527L182.012,198.527z M201.042,189.912c-2.984,3.672-5.823,7.467-8.508,11.393
			c1.107,1.387,1.877,3.184,2.432,5.277c4.074-3.049,8.232-5.983,12.472-8.787C205.386,193.719,203.249,191.219,201.042,189.912
			L201.042,189.912z M158.888,166.176c0.424-2.567,0.453-5.037,0.092-7.408c-1.98-0.82-3.922-1.391-5.835-1.789
			c1.417,2.596,2.384,5.715,2.731,9.543C156.65,165.967,157.682,165.872,158.888,166.176L158.888,166.176z M133.033,144.568
			c7.049-3.48,14.484-5.851,22.351-6.984c-7.99-0.459-15.748,0.759-23.272,3.657C132.403,142.35,132.71,143.461,133.033,144.568
			L133.033,144.568z M108.045,150.801c3.757-4.801,7.909-9.088,12.388-12.949c-4.599,3.051-8.732,6.389-12.439,9.955
			C107.994,148.807,108.011,149.805,108.045,150.801L108.045,150.801z M107.994,147.807c3.707-3.566,7.841-6.904,12.439-9.955
			c-4.479,3.861-8.631,8.148-12.388,12.949c-4.208,5.377-7.921,11.399-11.038,18.197c11.077-13.757,22.779-23.008,35.104-27.757
			c-2.528-9.61-3.897-19.218-4.254-28.829C111.583,120.068,108,134.023,107.994,147.807L107.994,147.807z M133.033,144.568
			c-11.922,5.888-22.736,14.953-32.656,26.586c0.953-0.578,1.896-1.162,2.835-1.75c1.177-3.176,3.845-5.947,6.944-6.678
			c-1.02,1.252-2.08,2.726-2.972,4.175c9.934-6.26,19.354-11.964,29.583-11.296C135.345,151.926,134.103,148.246,133.033,144.568
			L133.033,144.568z M251.916,234.385c-1.854-0.199-1.744,5.504-1.365,9.56c1.453,2.777,4.223,4.241,8.908,3.78
			c3.52-1.753,6.221-3.818,3.24-8.098C257.609,238.668,253.586,237.146,251.916,234.385L251.916,234.385z M251.916,234.385
			c1.67,2.762,5.693,4.283,10.783,5.243c4.549-0.494,8.689-1.211,9.988-3.511c2.248-2.79,1.438-5.397-2.428-7.828
			C268.166,232.621,261.58,234.382,251.916,234.385L251.916,234.385z"/>
		<path fill-rule="evenodd" clip-rule="evenodd" fill="#1D1D1B" d="M142.728,155.924c0.015,1.01-0.493,2.541-1.257,4.326
			c1.675-0.641,2.982-2.176,4.095-4.191C144.617,156.006,143.671,155.965,142.728,155.924L142.728,155.924z"/>
		<path fill-rule="evenodd" clip-rule="evenodd" fill="#F5B1B5" d="M84.388,231.215c19.222-9.472-20.428-50.727-56.315-39.283
			c-16.896,18.801-5.815,63.544,18.933,81.979c17.097,12.689,35.904,13.409,55.879,5.94c0.605-1.9-0.408-2.987-3.046-3.266
			c-5.438,2.398-10.874-0.889-16.313-4.986c-3.774,0.942-4.854,2.695-8.629,3.64c-10.875,1.394-15.324-8.586-2.83-8.495
			c5.261-1.447,7.966-4.427,0.805-6.604c-17.278-4.931-12.809-17.866-4.717-15.506l10.651,5.662c5.468,2.681,5.838,0.852,1.11-5.49
			l-3.211,1.258l-3.152,0.708l2.793-1.532l3.034-1.123c-1.265-1.428-2.254-2.826-2.981-4.201c-4.994-1.479-8.925-3.936-11.576-7.579
			c3.854,0.586,7.199,0.824,10.074,0.768c0.081-0.842,0.263-1.672,0.54-2.493C77.365,224.924,80.607,226.557,84.388,231.215
			L84.388,231.215z"/>
		<path fill-rule="evenodd" clip-rule="evenodd" fill="#FCD38F" d="M251.904,313.324c-29.663-6.327-48.093,47.827-37.731,66.491
			c12.549,2.415,23.381-15.344,36.651-40.576c11.227-4.309,16.646-10.271,12.418-18.896c-2.838-4.892-7.406-5.119-11.141-3.516
			C252.137,315.761,252.072,314.597,251.904,313.324L251.904,313.324z"/>
		<path fill="#1D1D1B" d="M66.156,371.024c8.94-16.044,24.473-24.272,42.633-24.689l-0.022-1.106
			c-18.409,0.417-34.695,8.884-43.619,25.332l-0.039,0.071l-0.015,0.068c-0.525,2.276-0.945,4.601-0.871,6.946
			c0.395,9.137,9.322,5.349,15.01,2.129l0.053,0.084l2.994-1.903l2.396-2.191l-2.999,1.242l-1.269,0.807
			c-6.896,4.246-16.894,8.62-14.776-4.17C65.775,372.765,65.953,371.89,66.156,371.024L66.156,371.024z"/>
		<path fill="#1D1D1B" d="M87.803,385.966c-5.968,8.428-14.966,7.908-16.087-3.361l-1.104,0.098
			c1.165,12.435,11.572,13.043,18.148,3.828l0.053-0.07l0.025-0.091l5.799-19.711h0.008l1-3.397l0.363-3.227l-1.442,2.906l-1.001,3.4
			l0.008,0.004L87.803,385.966L87.803,385.966z"/>
		<path fill="#1D1D1B" d="M91.175,378.419l-0.002,0.014v0.004c-0.271,1.282-0.43,2.6-0.492,3.923
			c-0.063,1.315-0.029,2.647,0.082,3.952c0.561,6.594,3.031,12.385,5.031,13.152l0.097,0.036l0.082,0.073
			c4.405,4.078,10.626,4.027,18.274,1.02c7.8-3.067,17.051-9.193,27.361-17.164l0.676,0.878
			c-10.388,8.031-19.728,14.208-27.633,17.319c-8.014,3.152-14.59,3.174-19.352-1.168c-2.303-1.029-5.059-7.165-5.644-14.055
			c-0.112-1.34-0.146-2.716-0.082-4.098c0.065-1.376,0.229-2.752,0.513-4.095l0,0l0.004-0.013L91.175,378.419L91.175,378.419z"/>
		<path fill="none" stroke="#1D1D1B" stroke-width="0.9998" stroke-miterlimit="22.9256" d="M141.597,383.887
			c26.201,10.606,45.996-26.456,59.418-31.96c0.985,11.714,2.873,21.713,6.21,24.564c15.685,11.877,27.947-7.488,43.599-37.252
			c11.227-4.309,16.646-10.271,12.418-18.896c-2.838-4.892-7.406-5.119-11.141-3.516"/>
		<path fill="#1D1D1B" d="M238.722,325.46c4.586,0.404,8.085-0.236,10.251-2.156c2.127-1.888,3.006-5.078,2.393-9.803
			c-2.43-4.448-5.662-6.439-9.481-6.642c-3.905-0.209-8.447,1.423-13.396,4.208c-5.701,5.783-10.361,12.777-13.871,21.102
			c-3.521,8.363-5.887,18.075-6.977,29.262l-1.101-0.105c1.101-11.299,3.493-21.119,7.06-29.588
			c3.575-8.484,8.329-15.61,14.152-21.501l0.051-0.054l0.074-0.039c5.146-2.908,9.914-4.613,14.065-4.391
			c4.236,0.221,7.803,2.415,10.451,7.31l0.047,0.087l0.012,0.104c0.689,5.181-0.314,8.721-2.748,10.88
			c-2.412,2.141-6.19,2.863-11.079,2.433L238.722,325.46L238.722,325.46z"/>
		<path fill="#1D1D1B" d="M108.587,150.404c0.047,1.596,0.17,4.504,0.284,6.074l-1.106,0.078c-0.093-1.269-0.202-3.868-0.254-5.157
			L108.587,150.404L108.587,150.404z M133.562,144.406c1.036,3.557,2.232,7.117,3.596,10.674c1.713,0.135,3.381,0.202,5.055,0.27
			c13.732,0.555,27.744,1.127,46.708,35.949c3.964-2.753,7.873-4.07,11.661-2.264c3.855,1.84,7.499,6.964,10.813,17.217l0.031,0.215
			c0.231,9.705-0.966,17.445-2.984,24.15c-1.717,5.705-4.023,10.62-6.547,15.245c6.261-4.88,12.465-9.495,18.527-13.456
			c6.771-4.426,13.372-8.04,19.688-10.309l0.134-0.049l0.138,0.023c4.782,0.758,9.226,1.182,13.126,1.071
			c3.855-0.108,7.172-0.744,9.748-2.097l0.014-0.004c3.355-1.642,5.984-2.238,7.453-1.161c1.434,1.054,1.646,3.599,0.197,8.172
			c1.834,1.218,2.961,2.503,3.377,3.851c0.463,1.482,0.078,2.99-1.148,4.526c-0.738,1.269-2.197,2.088-4.074,2.65
			c-1.572,0.469-3.445,0.766-5.424,0.997c1.146,1.979,1.105,3.531,0.35,4.826h-0.004c-0.814,1.392-2.449,2.402-4.285,3.319
			l-0.088,0.043l-0.107,0.012c-2.443,0.237-4.4-0.029-5.945-0.725c-1.143-0.512-2.059-1.254-2.771-2.19
			c-0.369,1.44-0.848,2.759-1.523,3.866c-0.912,1.486-2.174,2.587-3.971,3.079l0,0c-1.969,0.549-3.52,0.65-4.653,0.31
			c-0.552-0.166-1.013-0.438-1.376-0.811c-0.36-0.37-0.619-0.841-0.777-1.4c-0.337-1.211-0.181-2.877,0.458-5
			c0.551-2.115,0.344-3.408-0.307-4.227c-0.574-0.729-1.53-1.135-2.613-1.436c-6.07,14.831-15.412,32.6-23.009,43.457
			c-1.5,2.147-2.933,4.021-4.259,5.551c-1.231,1.421-2.379,2.554-3.408,3.339c0.541,3.018,1.023,5.934,1.275,8.822
			c0.232,2.668,0.272,5.341-0.007,8.089c2.298-1.313,4.366-2.022,6.207-2.258c2.13-0.276,3.952,0.077,5.474,0.854
			c1.518,0.78,2.719,1.982,3.606,3.398c0.981,1.561,1.588,3.391,1.823,5.211l-1.097,0.142c-0.216-1.669-0.767-3.337-1.662-4.761
			c-0.79-1.262-1.851-2.321-3.176-3.005c-1.329-0.683-2.937-0.987-4.831-0.743c-1.941,0.253-4.182,1.084-6.729,2.686l-1.002,0.629
			l0.158-1.168c0.403-3.048,0.387-6.008,0.127-8.975c-0.259-2.999-0.764-5.979-1.318-9.064l-0.061-0.336l0.271-0.202l0.005-0.003
			l0.009-0.01c1.031-0.733,2.211-1.885,3.496-3.371c1.305-1.504,2.715-3.352,4.189-5.458c7.627-10.899,17.033-28.831,23.071-43.691
			l0.182-0.441l0.464,0.111c1.475,0.363,2.83,0.868,3.681,1.948c0.861,1.087,1.167,2.695,0.505,5.212l-0.004,0.017
			c-0.578,1.921-0.729,3.385-0.45,4.387c0.104,0.379,0.272,0.687,0.501,0.924c0.229,0.233,0.531,0.409,0.902,0.52
			c0.932,0.279,2.277,0.177,4.038-0.313l0,0c1.496-0.41,2.549-1.334,3.316-2.59c0.803-1.31,1.309-2.984,1.686-4.814l0.313-1.523
			l0.721,1.377c0.668,1.275,1.639,2.252,2.977,2.854c1.35,0.605,3.088,0.843,5.281,0.641c1.639-0.822,3.08-1.709,3.738-2.84l0,0
			c0.633-1.084,0.549-2.477-0.793-4.401l-0.535-0.766l0.932-0.103c2.244-0.245,4.383-0.542,6.113-1.06
			c1.635-0.486,2.883-1.165,3.451-2.173l0.023-0.039l0.027-0.035c0.998-1.242,1.324-2.42,0.979-3.537
			c-0.363-1.172-1.453-2.333-3.27-3.474l-0.371-0.231l0.139-0.41c1.412-4.295,1.393-6.559,0.33-7.34
			c-1.076-0.79-3.324-0.199-6.309,1.26c-2.732,1.43-6.207,2.1-10.221,2.216c-3.932,0.112-8.396-0.309-13.188-1.063
			c-6.173,2.236-12.656,5.793-19.32,10.148c-6.726,4.397-13.639,9.606-20.613,15.096l-2.227,1.751l1.402-2.462
			c3.001-5.27,5.801-10.81,7.789-17.42c1.98-6.589,3.162-14.251,2.939-23.785c-3.203-9.872-6.635-14.769-10.213-16.478
			c-3.496-1.667-7.224-0.245-11.047,2.523l-0.513,0.372l-0.302-0.559c-18.815-34.816-32.582-35.374-46.074-35.919
			c-1.832-0.073-3.66-0.147-5.449-0.298l-0.344-0.029l-0.127-0.326c-1.404-3.635-2.635-7.273-3.698-10.91L133.562,144.406
			L133.562,144.406z M132.582,140.848c-0.021-0.076-1.039,0.406-1.059,0.329c-0.615-2.353-1.162-4.704-1.64-7.058
			c-1.415-6.949-2.244-13.896-2.544-20.842c-8.964,4.436-13.86,10.875-16.384,18.118c-1.733,4.983-2.354,10.355-2.403,15.725
			c0-0.073-1.111,0.919-1.111,0.845c-0.009-5.756,0.597-11.554,2.469-16.932c2.686-7.706,7.955-14.531,17.715-19.123l0.756-0.356
			l0.031,0.837c0.266,7.17,1.098,14.339,2.557,21.508C131.439,136.213,131.976,138.531,132.582,140.848L132.582,140.848z"/>
		<path fill="none" stroke="#1D1D1B" stroke-width="0.216" stroke-miterlimit="22.9256" d="M108.587,150.404
			c0.047,1.596,0.17,4.504,0.284,6.074l-1.106,0.078c-0.093-1.269-0.202-3.868-0.254-5.157 M133.562,144.406
			c1.036,3.557,2.232,7.117,3.596,10.674c1.713,0.135,3.381,0.202,5.055,0.27c13.732,0.555,27.744,1.127,46.708,35.949
			c3.964-2.753,7.873-4.07,11.661-2.264c3.855,1.84,7.499,6.964,10.813,17.217l0.031,0.215c0.231,9.705-0.966,17.445-2.984,24.15
			c-1.717,5.705-4.023,10.62-6.547,15.245c6.261-4.88,12.465-9.495,18.527-13.456c6.771-4.426,13.372-8.04,19.688-10.309l0.134-0.049
			l0.138,0.023c4.782,0.758,9.226,1.182,13.126,1.071c3.855-0.108,7.172-0.744,9.748-2.097l0.014-0.004
			c3.355-1.642,5.984-2.238,7.453-1.161c1.434,1.054,1.646,3.599,0.197,8.172c1.834,1.218,2.961,2.503,3.377,3.851
			c0.463,1.482,0.078,2.99-1.148,4.526c-0.738,1.269-2.197,2.088-4.074,2.65c-1.572,0.469-3.445,0.766-5.424,0.997
			c1.146,1.979,1.105,3.531,0.35,4.826h-0.004c-0.814,1.392-2.449,2.402-4.285,3.319l-0.088,0.043l-0.107,0.012
			c-2.443,0.237-4.4-0.029-5.945-0.725c-1.143-0.512-2.059-1.254-2.771-2.19c-0.369,1.44-0.848,2.759-1.523,3.866
			c-0.912,1.486-2.174,2.587-3.971,3.079l0,0c-1.969,0.549-3.52,0.65-4.653,0.31c-0.552-0.166-1.013-0.438-1.376-0.811
			c-0.36-0.37-0.619-0.841-0.777-1.4c-0.337-1.211-0.181-2.877,0.458-5c0.551-2.115,0.344-3.408-0.307-4.227
			c-0.574-0.729-1.53-1.135-2.613-1.436c-6.07,14.831-15.412,32.6-23.009,43.457c-1.5,2.147-2.933,4.021-4.259,5.551
			c-1.231,1.421-2.379,2.554-3.408,3.339c0.541,3.018,1.023,5.934,1.275,8.822c0.232,2.668,0.272,5.341-0.007,8.089
			c2.298-1.313,4.366-2.022,6.207-2.258c2.13-0.276,3.952,0.077,5.474,0.854c1.518,0.78,2.719,1.982,3.606,3.398
			c0.981,1.561,1.588,3.391,1.823,5.211l-1.097,0.142c-0.216-1.669-0.767-3.337-1.662-4.761c-0.79-1.262-1.851-2.321-3.176-3.005
			c-1.329-0.683-2.937-0.987-4.831-0.743c-1.941,0.253-4.182,1.084-6.729,2.686l-1.002,0.629l0.158-1.168
			c0.403-3.048,0.387-6.008,0.127-8.975c-0.259-2.999-0.764-5.979-1.318-9.064l-0.061-0.336l0.271-0.202l0.005-0.003l0.009-0.01
			c1.031-0.733,2.211-1.885,3.496-3.371c1.305-1.504,2.715-3.352,4.189-5.458c7.627-10.899,17.033-28.831,23.071-43.691l0.182-0.441
			l0.464,0.111c1.475,0.363,2.83,0.868,3.681,1.948c0.861,1.087,1.167,2.695,0.505,5.212l-0.004,0.017
			c-0.578,1.921-0.729,3.385-0.45,4.387c0.104,0.379,0.272,0.687,0.501,0.924c0.229,0.233,0.531,0.409,0.902,0.52
			c0.932,0.279,2.277,0.177,4.038-0.313l0,0c1.496-0.41,2.549-1.334,3.316-2.59c0.803-1.31,1.309-2.984,1.686-4.814l0.313-1.523
			l0.721,1.377c0.668,1.275,1.639,2.252,2.977,2.854c1.35,0.605,3.088,0.843,5.281,0.641c1.639-0.822,3.08-1.709,3.738-2.84l0,0
			c0.633-1.084,0.549-2.477-0.793-4.401l-0.535-0.766l0.932-0.103c2.244-0.245,4.383-0.542,6.113-1.06
			c1.635-0.486,2.883-1.165,3.451-2.173l0.023-0.039l0.027-0.035c0.998-1.242,1.324-2.42,0.979-3.537
			c-0.363-1.172-1.453-2.333-3.27-3.474l-0.371-0.231l0.139-0.41c1.412-4.295,1.393-6.559,0.33-7.34
			c-1.076-0.79-3.324-0.199-6.309,1.26c-2.732,1.43-6.207,2.1-10.221,2.216c-3.932,0.112-8.396-0.309-13.188-1.063
			c-6.173,2.236-12.656,5.793-19.32,10.148c-6.726,4.397-13.639,9.606-20.613,15.096l-2.227,1.751l1.402-2.462
			c3.001-5.27,5.801-10.81,7.789-17.42c1.98-6.589,3.162-14.251,2.939-23.785c-3.203-9.872-6.635-14.769-10.213-16.478
			c-3.496-1.667-7.224-0.245-11.047,2.523l-0.513,0.372l-0.302-0.559c-18.815-34.816-32.582-35.374-46.074-35.919
			c-1.832-0.073-3.66-0.147-5.449-0.298l-0.344-0.029l-0.127-0.326c-1.404-3.635-2.635-7.273-3.698-10.91 M132.582,140.848
			c-0.021-0.076-1.039,0.406-1.059,0.329c-0.615-2.353-1.162-4.704-1.64-7.058c-1.415-6.949-2.244-13.896-2.544-20.842
			c-8.964,4.436-13.86,10.875-16.384,18.118c-1.733,4.983-2.354,10.355-2.403,15.725c0-0.073-1.111,0.919-1.111,0.845
			c-0.009-5.756,0.597-11.554,2.469-16.932c2.686-7.706,7.955-14.531,17.715-19.123l0.756-0.356l0.031,0.837
			c0.266,7.17,1.098,14.339,2.557,21.508C131.439,136.213,131.976,138.531,132.582,140.848L132.582,140.848z"/>
		<path fill="#1D1D1B" d="M108.08,345.992c0.244-1.259,0.661-2.607,1.359-4.099c0.645-1.379,1.529-2.877,2.731-4.524l-8.88-10.708
			c-9.974-8.912-21.119-8.563-32.336-8.209c-5.969,0.188-11.958,0.377-17.848-0.804l-0.021-0.004
			c-5.904-1.403-10.363-4.179-13.972-7.761c-3.586-3.56-6.319-7.91-8.794-12.492l-4.175-7.729l5.113,7.141
			c1.815,2.535,3.899,4.816,6.31,6.777c2.407,1.966,5.149,3.621,8.283,4.906l0.2,0.074h0.002c8.243,3.058,18.743,2.419,29.03,1.793
			c4.453-0.272,8.871-0.541,13.083-0.508h0.005l0.237,0.002h0.003c1.469,0.035,3,0.273,4.572,0.684
			c1.563,0.404,3.17,0.98,4.796,1.688c8.165,3.573,16.938,10.622,23.657,17.11c1.066-0.17,2.09-0.43,3.063-0.769l0,0
			c1.037-0.368,2.018-0.825,2.93-1.38c4.633-2.803,7.633-8.041,7.914-15.51c-6.098-3.287-11.756-7.873-17.148-13.249
			c-5.375-5.355-10.482-11.495-15.496-17.914c-9.93,3.663-19.579,5.31-28.881,4.481c-9.438-0.842-18.508-4.229-27.143-10.635
			c-14.626-10.896-24.517-30.891-26.771-49.385c-0.973-7.989-0.519-15.714,1.593-22.317c2.127-6.648,5.932-12.158,11.652-15.671
			c7.115-4.371,17.178-5.628,30.624-2.104l0.011,0.001h0.002c2.234,0.587,4.844,1.69,7.611,2.858
			c3.586,1.516,7.445,3.145,11.036,3.874c0.703-2.698,1.516-5.399,2.448-8.095c0.99-2.852,2.105-5.676,3.354-8.447
			c6.462-14.305,16.632-27.557,31.89-37.68l7.314-4.854l-6.645,5.734c-4.719,4.07-9.075,8.613-12.984,13.736
			c-3.053,4.002-5.834,8.357-8.299,13.119c8.073-9.36,16.476-16.39,25.206-21.089c9.821-5.285,20.054-7.62,30.695-7.008l5.501,0.317
			l-5.453,0.786c-10.507,1.515-20.244,5.253-29.312,10.909c-8.154,5.088-15.771,11.73-22.928,19.705
			c0.872-0.548,1.746-1.102,2.615-1.651c10.398-6.563,20.197-12.748,30.964-12.046l-0.068,1.107
			c-10.413-0.68-20.063,5.412-30.306,11.877c-1.863,1.178-3.749,2.367-5.732,3.574l0,0l-0.028,0.018l-2.952,1.798l2.242-2.631
			c7.928-9.298,16.428-16.966,25.609-22.693c7.512-4.688,15.48-8.074,23.959-9.997c-8.356,0.395-16.449,2.698-24.279,6.91
			c-9.664,5.201-18.934,13.313-27.808,24.331l-2.785,3.461l1.851-4.038c2.969-6.475,6.473-12.248,10.43-17.432
			c2.076-2.725,4.279-5.284,6.594-7.697c-11.142,9.123-18.975,20.145-24.277,31.89c-1.246,2.758-2.352,5.548-3.322,8.351
			c-0.969,2.798-1.814,5.641-2.547,8.504l-0.001,0.004l-0.003,0.006l-0.129,0.496l-0.504-0.092c-3.855-0.693-7.967-2.43-11.775-4.037
			c-2.723-1.15-5.291-2.237-7.465-2.806v-0.003h-0.007c-13.128-3.441-22.898-2.241-29.772,1.979
			c-5.477,3.362-9.127,8.659-11.172,15.058c-2.061,6.442-2.498,14.007-1.545,21.855c2.219,18.221,11.947,37.909,26.328,48.622
			c8.463,6.28,17.344,9.598,26.578,10.422c9.25,0.824,18.867-0.851,28.779-4.555l0.381-0.145l0.249,0.318
			c5.068,6.504,10.228,12.725,15.651,18.135c5.407,5.389,11.081,9.971,17.193,13.214l0.303,0.161l-0.01,0.344
			c-0.213,8.064-3.438,13.729-8.459,16.771c-0.98,0.594-2.031,1.086-3.135,1.476l0,0c-1.105,0.391-2.269,0.677-3.479,0.858h-0.004
			l-0.055,0.007l-0.268,0.04l-0.199-0.191c-6.667-6.471-15.418-13.537-23.525-17.084c-1.576-0.686-3.129-1.244-4.631-1.636
			c-1.494-0.386-2.941-0.611-4.32-0.646l-0.232-0.004c-4.146-0.032-8.558,0.236-13.006,0.509
			c-10.402,0.633-21.022,1.282-29.482-1.856l-0.002-0.004l-0.205-0.076l-0.015-0.008c-3.243-1.329-6.081-3.041-8.573-5.072
			c-0.832-0.677-1.619-1.387-2.372-2.131c1.596,2.459,3.357,4.761,5.396,6.785c3.471,3.445,7.762,6.113,13.447,7.466l0,0
			c5.757,1.154,11.678,0.966,17.578,0.78c11.452-0.359,22.832-0.716,33.145,8.525l0.041,0.033l0.018,0.027l9.18,11.065l0.277,0.336
			l-0.26,0.351c-1.298,1.735-2.223,3.279-2.881,4.683c-0.65,1.39-1.043,2.655-1.27,3.836L108.08,345.992L108.08,345.992z"/>
		<path fill="#1D1D1B" d="M103.49,368.071c-1.112-6.779,2.037-16.404,5.481-21.746l-0.692-0.458
			c-3.311,5.003-6.527,14.054-5.999,20.865l0.735,3.553l1.507,2.874l-0.437-3.218L103.49,368.071L103.49,368.071z"/>
		<path fill="#1D1D1B" d="M112.717,337.12c0.866-1.705,2.054-3.122,3.509-4.36c1.443-1.231,3.143-2.277,5.049-3.249l0.377,0.744
			c-1.857,0.943-3.506,1.96-4.888,3.135c-1.371,1.166-2.489,2.503-3.306,4.107L112.717,337.12L112.717,337.12z"/>
		<path fill="#1D1D1B" d="M201.433,351.94c-0.007,0.229-0.199,0.406-0.428,0.402c-0.229-0.006-0.41-0.197-0.403-0.427
			c0.063-2.106,0.377-4.353,0.982-6.819c0.605-2.456,1.497-5.137,2.725-8.125c0.085-0.211,0.331-0.312,0.542-0.229
			c0.212,0.088,0.313,0.33,0.225,0.545c-1.207,2.944-2.088,5.588-2.684,8.008C201.8,347.704,201.493,349.896,201.433,351.94
			L201.433,351.94z"/>
		<path fill="#1D1D1B" d="M251.816,313.732c-5.695-1.216-10.972-0.158-15.695,2.466c-5.76,3.195-10.715,8.723-14.624,15.308
			c-3.926,6.604-6.799,14.271-8.391,21.726c-2.213,10.365-1.945,20.307,1.43,26.383l-0.727,0.404
			c-3.475-6.258-3.768-16.412-1.518-26.961c1.608-7.54,4.516-15.295,8.488-21.977c3.983-6.701,9.039-12.337,14.938-15.609
			c4.895-2.719,10.366-3.814,16.271-2.555L251.816,313.732L251.816,313.732z"/>
		<path fill="#1D1D1B" d="M75.113,233.648c-2.869,0.074-6.198-0.148-10.02-0.71c-0.027-0.004-0.116-0.239-0.118-0.266
			c-0.021-0.293-0.01,0.126-0.187-0.113l0.116-0.772c3.973,0.603,7.392,0.838,10.3,0.758
			C75.275,232.541,75.044,233.652,75.113,233.648L75.113,233.648z M83.874,230.85c1.095-0.508,2-1.121,2.724-1.818
			c2.491-2.404,2.817-5.906,1.479-9.822c-1.381-4.037-4.517-8.498-8.881-12.678c-11.605-11.112-31.83-20.17-50.954-14.07
			l-0.336-1.058c19.566-6.237,40.221,2.995,52.056,14.329c4.494,4.301,7.729,8.918,9.166,13.121c1.48,4.328,1.08,8.235-1.76,10.977
			c-0.746,0.719-1.661,1.354-2.756,1.89L83.874,230.85L83.874,230.85z"/>
		<path fill="none" stroke="#1D1D1B" stroke-width="0.216" stroke-miterlimit="22.9256" d="M75.113,233.648
			c-2.869,0.074-6.198-0.148-10.02-0.71c-0.027-0.004-0.116-0.239-0.118-0.266c-0.021-0.293-0.01,0.126-0.187-0.113l0.116-0.772
			c3.973,0.603,7.392,0.838,10.3,0.758C75.275,232.541,75.044,233.652,75.113,233.648L75.113,233.648z M83.874,230.85
			c1.095-0.508,2-1.121,2.724-1.818c2.491-2.404,2.817-5.906,1.479-9.822c-1.381-4.037-4.517-8.498-8.881-12.678
			c-11.605-11.112-31.83-20.17-50.954-14.07l-0.336-1.058c19.566-6.237,40.221,2.995,52.056,14.329
			c4.494,4.301,7.729,8.918,9.166,13.121c1.48,4.328,1.08,8.235-1.76,10.977c-0.746,0.719-1.661,1.354-2.756,1.89"/>
		
			<path fill-rule="evenodd" clip-rule="evenodd" fill="#FCD38F" stroke="#1D1D1B" stroke-width="0.9998" stroke-miterlimit="22.9256" d="
			M191.728,293.372c-6.773-14.43-10.83-8.986-15.805,6.075c-4.721,18.72-20.154,37.653-34.978,53.889
			c-11.062,15.068,5.666,36.718,29.173,18.368c24.455-19.556,43.813-53.572,32.953-85.898
			C196.669,275.228,194.136,283.985,191.728,293.372L191.728,293.372z"/>
		<path fill-rule="evenodd" clip-rule="evenodd" fill="#1D1D1B" d="M177.327,206.287c-2.541-0.307-4.934,1.807-5.918,2.848
			c-4.551,4.821,1.437,7.669,6.334,7.008c2.186-0.295,3.875,1.148,3.88,1.852c3.278-3.492,5.114-7.214,4.377-11.182
			C185.209,202.549,181.579,201.884,177.327,206.287L177.327,206.287z"/>
		<path fill-rule="evenodd" clip-rule="evenodd" fill="#FFFFFF" d="M180.167,210.172c2.322-1.338,3.764-3.191,3.216-4.143
			c-0.545-0.95-2.874-0.634-5.196,0.701c-2.322,1.34-3.764,3.193-3.217,4.143C175.515,211.824,177.843,211.509,180.167,210.172
			L180.167,210.172z"/>
		<path fill="#1D1D1B" stroke="#1D1D1B" stroke-width="0.216" stroke-miterlimit="22.9256" d="M243.943,149.842
			c-21.468,14.555-40.821,33.07-54.751,55.006l0.699,0.447c14.107-21.965,33.072-40.055,54.521-54.746l2.926-2.025l2.453-2.066
			l-2.988,1.42L243.943,149.842L243.943,149.842z"/>
		<path fill="#1D1D1B" stroke="#1D1D1B" stroke-width="0.216" stroke-miterlimit="22.9256" d="M273.898,168.652
			c-31.241,6.979-59.601,22.546-84.614,42.301l0.518,0.652c24.777-19.759,53.232-35.146,84.263-42.133l3.488-0.76l3.031-1.027
			l-3.246,0.204L273.898,168.652L273.898,168.652z"/>
		<path fill="#1D1D1B" stroke="#1D1D1B" stroke-width="0.216" stroke-miterlimit="22.9256" d="M98.875,292.911
			c17.005-25.457,39.426-45.338,66.563-59.667l-0.384-0.735c-27.138,14.179-49.992,34.464-66.888,59.948l-1.972,2.947l-1.329,2.946
			l2.041-2.479L98.875,292.911L98.875,292.911z"/>
		<path fill="#1D1D1B" stroke="#1D1D1B" stroke-width="0.216" stroke-miterlimit="22.9256" d="M80.006,244.769
			c28.25-10.414,57.897-16.119,87.959-17.686l-0.043-0.829c-30.147,1.572-59.884,7.294-88.216,17.739l-3.361,1.246l-2.793,1.532
			l3.152-0.708L80.006,244.769L80.006,244.769z"/>
		<path fill="#1D1D1B" d="M65.531,231.881c1.284,1.763,2.621,3.372,4.502,4.59c1.891,1.225,4.075,2.188,6.521,2.912l-0.313,1.062
			c-2.547-0.752-4.827-1.758-6.813-3.044c-1.884-1.218-3.24-2.818-4.565-4.562c-0.075-0.101-0.11-0.197-0.185-0.303L65.531,231.881
			L65.531,231.881z"/>
		<path fill-rule="evenodd" clip-rule="evenodd" fill="#FFFFFF" d="M148.16,192.706c9.609,10.554,14.035,22.09,9.883,25.759
			c-4.151,3.668-15.309-1.916-24.92-12.471c-9.609-10.557-14.035-22.093-9.884-25.76C127.39,176.564,138.549,182.148,148.16,192.706
			L148.16,192.706z"/>
		<path fill="#1D1D1B" d="M148.57,192.332c0.19,0.209,0.414,0.46,0.668,0.748c4.603,5.205,7.951,10.606,9.648,15.172
			c1.723,4.633,1.75,8.461-0.307,10.473l0,0c-0.05,0.047-0.107,0.102-0.168,0.154l-0.006,0.008h-0.002l0,0
			c-0.658,0.578-1.463,0.951-2.389,1.134c-0.895,0.172-1.906,0.166-3.01-0.011c-5.445-0.864-13.292-5.955-20.292-13.643
			c-0.188-0.208-0.41-0.457-0.666-0.744c-4.603-5.207-7.953-10.609-9.648-15.175c-1.725-4.636-1.751-8.468,0.31-10.479l0.003-0.001
			c0.044-0.043,0.098-0.094,0.16-0.148l0.006-0.007l0.002-0.002h0.002c0.658-0.578,1.462-0.952,2.385-1.13h0.004
			c0.893-0.176,1.906-0.169,3.008,0.007C133.722,179.555,141.57,184.643,148.57,192.332L148.57,192.332z M148.409,193.813
			c-0.183-0.209-0.401-0.451-0.659-0.732c-6.834-7.51-14.43-12.469-19.647-13.299c-0.971-0.156-1.853-0.162-2.623-0.013l0,0
			c-0.737,0.144-1.369,0.433-1.872,0.876l-0.003,0.004c-0.036,0.03-0.079,0.072-0.126,0.118c-1.715,1.675-1.611,5.081-0.045,9.297
			c1.652,4.442,4.93,9.721,9.443,14.827c0.18,0.203,0.397,0.447,0.655,0.73c6.836,7.507,14.431,12.465,19.648,13.296
			c0.973,0.153,1.856,0.163,2.624,0.013c0.737-0.144,1.367-0.434,1.871-0.879l0.007-0.006h0.001l0,0
			c0.037-0.033,0.078-0.07,0.119-0.111v-0.002c1.715-1.677,1.613-5.083,0.046-9.296C156.198,204.195,152.921,198.916,148.409,193.813
			L148.409,193.813z"/>
		<path fill-rule="evenodd" clip-rule="evenodd" fill="#1D1D1B" d="M125.472,195.627c7.615,1.335,9.885-7.277-2.928-14.594
			c-0.36,0.545-0.604,1.191-0.74,1.924C121.24,186.02,122.598,190.592,125.472,195.627L125.472,195.627z"/>
		<path fill="none" stroke="#1D1D1B" stroke-width="0.4997" stroke-miterlimit="22.9256" d="M122.544,181.033
			c12.813,7.316,10.543,15.929,2.928,14.594"/>
		<path fill="none" stroke="#1D1D1B" stroke-width="0.7501" stroke-miterlimit="22.9256" d="M110.219,174.929
			c3.808-0.077,8.056,3.522,11.585,8.028 M114.937,166.976c4.514,3.056,6.59,7.844,8.301,13.259"/>
		<path fill="#1D1D1B" d="M173.129,180.156l-0.004-0.006c-0.364-0.547-0.741-1.092-1.125-1.633c-3.062-4.279-6.355-7.691-9.267-9.769
			c-2.76-1.968-5.111-2.722-6.472-1.819l-0.063,0.043c-2.143,1.531-1.415,6.816,1.451,13.171c0.575,1.275,1.234,2.587,1.971,3.91
			c0.739,1.325,1.562,2.674,2.463,4.026l0.004,0.007h0.002c0.389,0.581,0.767,1.13,1.133,1.643c3.061,4.28,6.352,7.69,9.261,9.762
			c2.763,1.972,5.115,2.72,6.477,1.813h0.001l0.055-0.037c2.143-1.532,1.416-6.816-1.45-13.172c-0.575-1.277-1.235-2.586-1.972-3.91
			C174.854,182.86,174.03,181.51,173.129,180.156L173.129,180.156z M174.054,179.545c0.912,1.369,1.749,2.744,2.506,4.104
			c0.759,1.361,1.434,2.699,2.016,3.99c3.086,6.847,3.693,12.664,1.082,14.531l-0.007,0.004l-0.069,0.049l-0.007,0.008
			c-1.786,1.189-4.583,0.41-7.734-1.836c-3.003-2.142-6.389-5.643-9.521-10.021c-0.404-0.566-0.791-1.121-1.156-1.67l-0.004-0.01l0,0
			c-0.91-1.367-1.748-2.742-2.506-4.103c-0.758-1.361-1.434-2.7-2.016-3.991c-3.086-6.845-3.693-12.662-1.082-14.529l0.006-0.006
			l0.07-0.047l0.006-0.006c1.788-1.191,4.587-0.412,7.739,1.836c3.005,2.143,6.391,5.645,9.524,10.028
			c0.381,0.532,0.762,1.085,1.145,1.658l0.006,0.011H174.054L174.054,179.545z M173.127,180.15h-0.002H173.127L173.127,180.15z"/>
		<path fill-rule="evenodd" clip-rule="evenodd" fill="#1D1D1B" d="M154.66,168.447c-0.704,2.64,0.284,7.148,2.634,12.255
			C167.438,181.381,163.124,170.104,154.66,168.447L154.66,168.447z"/>
		<path fill="#1D1D1B" d="M154.714,168.174c3.787,0.74,6.764,3.365,8.053,6.029c0.451,0.935,0.697,1.877,0.701,2.754
			c0.006,0.896-0.244,1.718-0.784,2.389c-0.914,1.138-2.655,1.817-5.407,1.635l0.037-0.555c2.549,0.172,4.133-0.426,4.939-1.426
			c0.455-0.569,0.666-1.271,0.662-2.043c-0.004-0.787-0.231-1.65-0.648-2.513c-1.223-2.53-4.053-5.022-7.66-5.728L154.714,168.174
			L154.714,168.174z"/>
		<path fill="#1D1D1B" d="M147.962,150.206c2.19,1.788,4.094,3.909,5.541,6.563c1.447,2.646,2.433,5.818,2.785,9.713l-0.826,0.076
			c-0.344-3.774-1.295-6.84-2.688-9.393c-1.391-2.551-3.225-4.592-5.337-6.316L147.962,150.206L147.962,150.206z"/>
		<path fill="#1D1D1B" d="M155.729,149.487l0.008,0.009h-0.002c0.473,0.703,0.902,1.416,1.29,2.145
			c0.39,0.729,0.737,1.468,1.036,2.211c1.553,3.849,1.963,7.979,1.236,12.391l-0.82-0.135c0.701-4.258,0.306-8.24-1.188-11.945
			c-0.291-0.724-0.625-1.434-0.996-2.131c-0.371-0.699-0.789-1.391-1.248-2.072h-0.002l-0.007-0.01L155.729,149.487L155.729,149.487z
			"/>
		<path fill="#1D1D1B" d="M107.316,189.133c-2.419-2.755-4.305-5.682-5.189-8.934c-0.891-3.262-0.772-6.846,0.826-10.896l0,0
			l0.002-0.003c0.171-0.461,0.369-0.908,0.593-1.336c0.226-0.434,0.479-0.854,0.756-1.26c1.425-2.081,3.491-3.705,5.788-4.248
			l0.791-0.186l-0.514,0.631l-0.004,0.004c-0.266,0.326-0.527,0.658-0.783,0.994c-0.254,0.336-0.515,0.689-0.777,1.061
			c-1.129,1.588-2.172,3.3-2.826,4.781c0.212-0.108,0.451-0.227,0.713-0.348l0,0c1.298-0.604,2.814-1.181,3.929-1.477l2.567-0.678
			l-2.373,1.194l-0.125,0.062l0,0c-0.882,0.452-1.644,0.989-2.288,1.605c-0.643,0.613-1.171,1.306-1.593,2.069
			c-2.178,3.948-1.509,9.826,0.976,16.687l0.499,1.379L107.316,189.133L107.316,189.133z M102.662,180.053
			c0.742,2.721,2.209,5.219,4.109,7.576c-2.123-6.4-2.557-11.898-0.448-15.727c0.448-0.813,1.012-1.549,1.696-2.201
			c0.189-0.182,0.393-0.356,0.601-0.525c-0.57,0.223-1.153,0.471-1.696,0.722v-0.001c-0.231,0.107-0.471,0.226-0.713,0.348h-0.002
			c-0.227,0.117-0.44,0.23-0.634,0.34l0,0l-0.007,0.005l-0.662,0.379l0.266-0.716c0.623-1.674,1.845-3.73,3.182-5.611
			c0.252-0.356,0.518-0.715,0.788-1.072l0.249-0.323c-1.825,0.667-3.453,2.056-4.629,3.772c-0.264,0.385-0.504,0.785-0.721,1.203
			s-0.408,0.846-0.566,1.271l-0.002,0.004l-0.004,0.007v0.003C101.919,173.434,101.803,176.9,102.662,180.053L102.662,180.053z"/>
		<path fill="#1D1D1B" d="M83.085,192.074c2.203-0.362,4.352-0.506,6.522-0.488c2.175,0.013,4.36,0.188,6.64,0.457l-0.098,0.828
			c-2.266-0.27-4.424-0.441-6.545-0.457c-2.125-0.014-4.229,0.125-6.385,0.48L83.085,192.074L83.085,192.074z"/>
		<path fill="#1D1D1B" d="M115.099,214.697c3.693-2.104,7.586-3.371,11.658-3.863c4.064-0.492,8.313-0.21,12.723,0.779l-0.182,0.811
			c-4.316-0.97-8.469-1.242-12.443-0.762c-3.965,0.479-7.751,1.71-11.346,3.759L115.099,214.697L115.099,214.697z"/>
		<path fill="#1D1D1B" stroke="#1D1D1B" stroke-width="0.216" stroke-miterlimit="22.9256" d="M92.373,262.198
			c-0.033-0.191-0.066-0.383-0.098-0.575l-1.089-3.058c-0.007,1.083-0.013,2.163-0.021,3.246c0.163,0.963,0.457,2.076,0.98,3.432
			c0.582,1.285,1.4,2.389,2.507,3.192c1.011,0.649,2.146,1.073,3.384,1.315l3.245-0.061l-3.071-1.05l-0.449-0.07
			C94.429,267.89,93,265.334,92.373,262.198L92.373,262.198z"/>
		<path fill="#1D1D1B" d="M197.13,271.894l0.003,0.008l0,0c0.37,0.467,0.73,0.972,1.073,1.508c0.35,0.541,0.687,1.12,1.01,1.715
			c1.439,2.686,2.627,5.891,3.469,8.838c0.023-0.161,0.043-0.322,0.063-0.488c0.074-0.615,0.139-1.245,0.189-1.887
			c0.26-3.284,0.175-6.837-0.629-9.444l0.528-0.16c0.827,2.681,0.918,6.308,0.651,9.647c-0.049,0.653-0.113,1.292-0.188,1.908
			c-0.074,0.608-0.162,1.211-0.256,1.789l0,0l-0.006,0.031l-0.217,1.281l-0.325-1.261c-0.831-3.229-2.14-6.954-3.771-9.993
			c-0.316-0.588-0.646-1.152-0.982-1.679c-0.34-0.528-0.69-1.022-1.046-1.466l-0.004-0.004l-0.004-0.006L197.13,271.894
			L197.13,271.894z"/>
		<path fill="#1D1D1B" d="M141.958,321.804c-0.713-1.943-1.552-3.771-2.617-5.524c-1.064-1.753-2.357-3.439-3.975-5.091l-0.918-0.939
			l1.219,0.488c1.91,0.764,3.962,1.687,5.861,2.779c1.907,1.101,3.662,2.371,4.962,3.832l-0.413,0.37
			c-1.261-1.417-2.967-2.651-4.824-3.721c-1.486-0.858-3.072-1.612-4.611-2.262c1.246,1.383,2.285,2.796,3.172,4.256
			c1.087,1.791,1.943,3.65,2.665,5.622L141.958,321.804L141.958,321.804z"/>
		<path fill="#1D1D1B" d="M270.508,228.406c-1.084,2.242-3.311,3.813-6.5,4.818c-3.031,0.955-6.943,1.404-11.576,1.436
			c0.828,1.131,2.1,2.036,3.707,2.77c1.83,0.835,4.088,1.451,6.615,1.926l-0.105,0.542c-2.563-0.483-4.863-1.109-6.738-1.963
			c-1.9-0.868-3.367-1.975-4.232-3.405l-0.252-0.42h0.49c4.803-0.002,8.836-0.439,11.928-1.412c3.041-0.959,5.156-2.438,6.166-4.529
			L270.508,228.406L270.508,228.406z"/>
		<path fill="none" stroke="#1D1D1B" stroke-width="0.4997" stroke-miterlimit="22.9256" d="M251.916,234.385
			c-1.854-0.199-1.744,5.504-1.365,9.56"/>
		<path fill="#1D1D1B" d="M235.513,238.746c0.891-0.365,1.477-0.98,1.844-1.777c0.383-0.83,0.535-1.867,0.545-3.029l0.828,0.004
			c-0.008,1.275-0.18,2.427-0.617,3.376c-0.453,0.981-1.18,1.743-2.287,2.194L235.513,238.746L235.513,238.746z"/>
		<path fill-rule="evenodd" clip-rule="evenodd" fill="#1D1D1B" d="M107.523,188.951c-3.516-9.707-3.418-17.498,3.167-20.764
			c-1.527,0.403-3.833,1.35-5.26,2.158c0.389-1.039,1.015-2.232,1.754-3.444c-1.313,0.83-2.637,1.669-3.973,2.503
			C100.064,177.382,102.74,183.501,107.523,188.951L107.523,188.951z"/>
		<path fill-rule="evenodd" clip-rule="evenodd" fill="#1D1D1B" d="M103.211,169.404c1.336-0.834,2.659-1.673,3.973-2.503
			c0.892-1.449,1.952-2.923,2.972-4.175C107.056,163.457,104.388,166.229,103.211,169.404L103.211,169.404z"/>
		<path fill-rule="evenodd" clip-rule="evenodd" fill="#1D1D1B" d="M150.484,219.606c-1.423,1.608-3.111,5.141-3.952,8.474
			c0.968-0.113,1.936-0.225,2.904-0.332C149.002,225.346,149.273,222.611,150.484,219.606L150.484,219.606z M143.384,245.777
			c4.371-3.108,8.892-6.036,13.554-8.771c-3.57-1.739-6.353-4.639-7.324-8.441c-1.096,0.121-2.189,0.247-3.281,0.379
			c-0.252,1.203-0.376,2.355-0.318,3.354c-1.221,0.427-2.383,0.857-3.484,1.291C142.48,237.721,142.697,241.793,143.384,245.777
			L143.384,245.777z M159.158,255.554c6.464-8.377,11.61-5.967,15.371,2.625c1.44,4.498,0.589,13.262-2.958,18.162
			c4.783-1.16,7.846-6.532,9.872-14.307c0.025-10.514,1.618-20.523,4.506-28.537c1.782-4.94,4.106-9.208,6.073-13.257
			c-3.068,5.855-7.279,10.094-11.119,8.859c-4.372,9.576-15.225,11.567-23.006,8.34c-4.951,2.901-9.732,6-14.339,9.296
			c0.74,3.846,1.937,7.601,3.771,11.228C151.398,252.705,156.491,248.749,159.158,255.554L159.158,255.554z"/>
		<path fill="none" stroke="#1D1D1B" stroke-width="0.9998" stroke-linejoin="round" stroke-miterlimit="22.9256" d="
			M102.884,279.851c0.605-1.9-0.408-2.987-3.046-3.266c-5.438,2.398-10.874-0.889-16.313-4.986c-3.774,0.942-4.854,2.695-8.629,3.64
			c-10.875,1.394-15.324-8.586-2.83-8.495c5.261-1.447,7.966-4.427,0.805-6.604c-17.278-4.931-12.809-17.866-4.717-15.506
			c3.553,1.888,7.103,3.775,10.651,5.662c5.63,2.76,5.854,0.737,0.675-6.067c-4.319-4.819-5.488-9.341-4.044-13.618
			c2.365-6.974,6.705-2.938,11.595,4.179c4.058,6.177,6.963,8.545,10.004,15.422c0.111-5.08,0.128-6.973,1.86-11.645
			c5.646-7.422,12.959-7.411,9.706,2.159c-1.844,4.627-0.721,10.244,1.753,16.311c0,1.979,0,3.955,0,5.934
			c8.079,6.896,17.353,9.847,27.235,10.785c5.279,0.706,14.814,4.926,20.163,12.219c-1.527-2.651-4.264-7.327-5.792-9.979
			c3.824,3.825,4.576,5.319,10.975,8.411c15.126,4.074,21.979-2.607,21.976-18.2l1.502-8.304l0.036,5.972
			c0.012,2.207,7.512-6.106,7.899-9.266c3.516-11.196,5.786-22.196,6.065-32.493c-0.178-6.65-1.837-10.441-4.717-11.861
			c-1.204-8.158-4.178-13.52-13.685-11.727c-2.396,2.791-4.244,5.801-7.981,6.285c-6.088,0.789-10.703,4.024-13.792,9.217
			c-0.994,3.101-1.472,6.924-9.754,5.577c-2.067,2.337-4.695,8.733-4.469,12.69c-28.011,9.85-24.635,20.569-8.426,41.458"/>
		<path fill="none" stroke="#1D1D1B" stroke-width="0.9998" stroke-miterlimit="22.9256" d="M150.484,219.606
			c-7.668,19.042,22.367,27.129,30.419,9.493c5.855,1.885,12.566-8.955,14.793-18.846c-1.359,7.352-6.474,14.16-9.747,23.243
			c-2.888,8.014-4.48,18.023-4.506,28.537c-3.369,12.932-9.606,19.216-21.866,10.525c-14.242-11.279-17.22-24.809-17.046-38.972"/>
	</g>
	<path opacity="0.25" fill="#EF7F3C" d="M243.373,453.601c0,9.126-43.379,16.521-96.883,16.521c-53.507,0-96.882-7.395-96.882-16.521
		c0-9.124,43.375-16.519,96.882-16.519C199.994,437.082,243.373,444.477,243.373,453.601z"/>
</svg>
