<svg version="1.1" xmlns="http://www.w3.org/2000/svg" xmlns:xlink="http://www.w3.org/1999/xlink" x="0px" y="0px"
	 width="230px" height="165px" viewBox="0 0 230 165" enable-background="new 0 0 230 165" xml:space="preserve">
	<path fill="#E20613" stroke="#1D1D1B" stroke-width="2" stroke-miterlimit="10" d="M132.521,19.965v10.415h7.627v12.465h-7.627
		v10.498l12.466,1.64l-1.641,12.383l-23.291-3.034V6.351l24.029,1.313l-1.066,13.121L132.521,19.965z"/>
	<path fill="#E20613" stroke="#1D1D1B" stroke-width="2" stroke-miterlimit="10" d="M22.764,3.735
		c4.035-0.289,8.025,1.099,11.973,4.16l-2.84,13.193c-1.975-1.557-4.626-2.218-7.951-1.98c-1.037,0.074-1.898,0.3-2.583,0.678
		c-1.329,0.588-2.307,1.48-2.933,2.676c-1.403,2.623-2.212,7.011-2.431,13.165l0.012,0.163l0.006,0.082
		c-0.112,1.488-0.104,3.132,0.024,4.931c0.542,7.581,2.31,12.387,5.305,14.42c1.099,0.799,2.575,1.132,4.43,1
		c1.035-0.074,2.171-0.292,3.406-0.655c0.081-4.226,0.071-7.431-0.029-9.617l-7.111,0.59l-1.606-9.833l20.502-1.876l1.672,29.149
		l-4.353,2.367c-3.744,2.077-7.442,3.246-11.096,3.507c-4.963,0.355-9.436-0.888-13.421-3.728
		C7.281,61.654,3.635,53.583,2.801,41.913c-0.125-1.745-0.15-4.018-0.077-6.818C3.19,19.386,7.452,9.599,15.508,5.734
		C17.999,4.57,20.419,3.903,22.764,3.735z"/>
	<path fill="#E20613" stroke="#1D1D1B" stroke-width="2" stroke-miterlimit="10" d="M45.82,66.403l-13.93-5.315L62.794,5.841
		l19.179,64.055l-15.364,1.017l-2.546-14.116l-13.161-2.865L45.82,66.403z M62.349,46.802l-2.643-14.546l-5.228,12.864L62.349,46.802
		z"/>
	<path fill="#E20613" stroke="#1D1D1B" stroke-width="2" stroke-miterlimit="10" d="M123.256,65.151l-12.384,2.132l-5.085-18.37
		l-6.889,20.583L87.991,46.043l-5.33,23.373l-12.384-1.723L83.48,6.516l13.86,30.999l9.021-33.295L123.256,65.151z"/>
	<path fill="#E20613" stroke="#1D1D1B" stroke-width="2" stroke-miterlimit="10" d="M11.489,103.115
		c2.212-0.616,4.245-0.349,6.099,0.802c3.024,1.813,5.41,5.848,7.154,12.104c0.432,1.549,0.763,3.041,0.992,4.475
		c2.212,7.932,1.96,13.621-0.758,17.068c-1.086,1.357-2.434,2.262-4.045,2.711c-0.475,0.133-0.93,0.208-1.367,0.229
		c-1.679,0.332-3.29,0.049-4.834-0.85c-2.361-1.385-4.422-4.316-6.183-8.799c-0.581-1.473-1.1-3.029-1.559-4.673
		c-0.062-0.222-0.149-0.538-0.264-0.948c-2.383-8.666-2.293-14.94,0.269-18.822C8.127,104.733,9.625,103.636,11.489,103.115z
		M18.422,133.108c0.294-0.049,0.56-0.071,0.799-0.07c-0.176-0.019-0.28-0.024-0.312-0.016c0.095-0.026,0.188-0.12,0.279-0.282
		c0.615-1.091,0.722-2.907,0.318-5.452c-0.358-1.772-0.736-3.557-1.135-5.354c-0.209-1.235-0.502-2.533-0.881-3.893
		c-0.229-0.82-0.473-1.57-0.729-2.248c-1.105-3.232-2.146-5.07-3.121-5.515l-0.189,0.053c-0.96,0.711-1.195,2.921-0.705,6.633
		c0.257,2.144,0.685,4.288,1.284,6.437c0.029,0.229,0.085,0.486,0.164,0.771c0.414,1.484,0.89,2.885,1.426,4.199
		C16.618,130.853,17.552,132.431,18.422,133.108z M13.356,110.358c-0.159,0.045-0.289,0.064-0.393,0.059
		C13.131,110.405,13.262,110.385,13.356,110.358z"/>
	<path fill="#E20613" stroke="#1D1D1B" stroke-width="2" stroke-miterlimit="10" d="M32.508,106.499l1.353,6.316l5.197-1.144
		l1.156,7.442l-4.724,1.01l2.949,13.328l-7.112,2.34l-8.79-34.275l16.969-4.732l0.917,7.508L32.508,106.499z"/>
	<path fill="#E20613" stroke="#1D1D1B" stroke-width="2" stroke-miterlimit="10" d="M139.133,104.505l1.638,10.285l7.532-1.199
		l1.959,12.311l-7.531,1.199l1.65,10.366l12.568-0.341l0.326,12.487l-23.478,0.666l-9.116-57.259l23.937-2.482l1.009,13.126
		L139.133,104.505z"/>
	<path fill="#E20613" stroke="#1D1D1B" stroke-width="2" stroke-miterlimit="10" d="M104.723,90.271v18.206h9.432l0.655-18.124
		l12.466-1.312l-1.559,59.619l-12.465-1.229l0.902-26.406h-9.432v27.145l-12.465-1.23v-56.34L104.723,90.271z"/>
	<path fill="#E20613" stroke="#1D1D1B" stroke-width="2" stroke-miterlimit="10" d="M159.369,91.676l15.418,2.245
		c-3.892,26.176-6.08,40.995-6.566,44.459c2.645,0.039,6.182,0.205,10.613,0.495l-2.055,12.878l-23.606-1.736L159.369,91.676z"/>
	<path fill="#E20613" stroke="#1D1D1B" stroke-width="2" stroke-miterlimit="10" d="M178.992,92.397l15.582,0.082
		c-0.22,26.461-0.328,41.441-0.328,44.939c2.624-0.328,6.15-0.656,10.578-0.984l-0.245,13.039l-23.618,1.559L178.992,92.397z"/>
	<path fill="#E20613" stroke="#1D1D1B" stroke-width="2" stroke-miterlimit="10" d="M217.066,150.663
		c-1.75,0.984-5.33,2.433-10.742,4.347l-3.609-15.007c2.133-0.711,4.291-1.448,6.479-2.215c2.569-1.093,3.99-2.323,4.265-3.689
		c0.437-1.694-0.629-3.908-3.199-6.645c-6.068-6.56-9.102-12.818-9.102-18.779c0-1.529,0.191-3.061,0.573-4.592
		c2.077-7.435,8.392-12.656,18.944-15.664l3.854,13.531c-6.232,1.751-9.349,3.992-9.349,6.725c0,2.297,1.804,5.359,5.413,9.186
		c4.481,4.812,6.724,10.197,6.724,16.155c0,0.767-0.055,1.914-0.163,3.444C226.826,142.6,223.463,147.001,217.066,150.663z"/>
	<path fill="#E20613" stroke="#1D1D1B" stroke-width="2" stroke-miterlimit="10" d="M69.638,89.164
		c2.733-2.679,5.604-4.866,8.611-6.561l8.446,13.859c-6.724,3.772-10.168,6.889-10.333,9.349c-0.109,1.859,1.395,4.018,4.511,6.479
		c8.746,6.725,13.121,13.75,13.121,21.076c0,9.021-5.769,16.264-17.304,21.732l-6.314-13.531c5.466-2.625,8.364-5.248,8.693-7.873
		c0.272-2.461-2.161-5.658-7.299-9.596c-7.435-5.74-10.879-12.219-10.333-19.436C61.875,99.251,64.608,94.084,69.638,89.164z"/>
	<polygon fill="#E20613" stroke="#1D1D1B" stroke-width="2" stroke-miterlimit="10" points="12.108,151.265 11.511,161.302 
		52.731,140.463 52.13,135.915 "/>
</svg>
