<svg version="1.1" xmlns="http://www.w3.org/2000/svg" xmlns:xlink="http://www.w3.org/1999/xlink" x="0px" y="0px"
	 width="210px" height="150px" viewBox="0 0 210 150" enable-background="new 0 0 210 150" xml:space="preserve">
	<g class="shell-group">
		<path fill="#1D1D1B" d="M102.574,25.36c0,0.481,0,0.96,0,1.44c0,0.769,0,1.538,0,2.307c0,0.175,0,0.35,0,0.526
			c-0.013,0.37,0.063,0.715,0.231,1.035c0.109,0.333,0.294,0.622,0.557,0.865c0.243,0.262,0.532,0.448,0.865,0.556
			c0.319,0.169,0.667,0.246,1.036,0.232c0.237-0.032,0.477-0.063,0.715-0.095c0.455-0.128,0.849-0.359,1.185-0.693
			c0.141-0.181,0.28-0.362,0.42-0.543c0.244-0.419,0.365-0.871,0.367-1.357c0-0.481,0-0.96,0-1.442c0-0.767,0-1.536,0-2.304
			c0-0.176,0-0.352,0-0.527c0.015-0.369-0.063-0.716-0.23-1.035c-0.108-0.334-0.294-0.623-0.557-0.867
			c-0.242-0.263-0.531-0.445-0.864-0.556c-0.32-0.167-0.667-0.245-1.036-0.231c-0.238,0.031-0.477,0.064-0.715,0.097
			c-0.455,0.127-0.853,0.356-1.187,0.69c-0.141,0.182-0.281,0.364-0.421,0.546C102.698,24.422,102.575,24.875,102.574,25.36
			L102.574,25.36z"/>
		<g>
			<path fill="#F9D250" d="M6.655,127.901c0-54.313,44.029-98.343,98.343-98.343l0,0c54.313,0,98.341,44.029,98.341,98.343
				C185.62,150.202,30.552,152.821,6.655,127.901z"/>
			<path fill="#FCD38F" stroke="#1D1D1B" stroke-width="0.9998" stroke-miterlimit="22.9256" d="M106.991,25.311h-3.986
				c-5.78,0-10.465-4.685-10.465-10.463l0,0c0-5.78,4.685-10.466,10.465-10.466h3.986c5.779,0,10.462,4.686,10.462,10.466l0,0
				C117.453,20.625,112.771,25.311,106.991,25.311z"/>
		</g>
		<g>
			<path fill="#EF7F3C" d="M87.913,111.053c-6.394-19.899-8.541-42.836-2.958-63.182c1.667-6.078,4.07-11.82,6.826-17.404
				C43.722,36.928,6.655,78.073,6.655,127.901c11.759,12.263,55.28,17.853,98.569,17.715
				C97.771,135.068,91.893,123.435,87.913,111.053z"/>
			<path fill="#EF7F3C" d="M95.949,22.53c3.338-6.064,6.881-12.035,10.131-18.149h-3.075c-5.78,0-10.465,4.686-10.465,10.466
				C92.541,17.897,93.867,20.617,95.949,22.53z"/>
		</g>
		<g>
			<path fill="#1D1D1B" d="M8.31,127.901c0.014-10.176,1.588-20.287,4.731-29.968c3.017-9.288,7.477-18.079,13.125-26.042
				c5.572-7.852,12.368-14.901,20.016-20.755c7.759-5.939,16.427-10.734,25.611-14.077c9.454-3.441,19.414-5.401,29.468-5.777
				c10.128-0.378,20.278,0.8,30.036,3.549c9.473,2.67,18.489,6.802,26.72,12.198c8.082,5.301,15.34,11.826,21.513,19.262
				c6.184,7.449,11.274,15.894,14.939,24.857c3.797,9.29,6.167,19.168,6.929,29.177c0.191,2.521,0.284,5.047,0.288,7.575
				c0.162-0.39,0.323-0.78,0.485-1.17c-0.459,0.572-0.976,1.101-1.524,1.584c-0.144,0.128-0.291,0.251-0.438,0.373
				c-0.075,0.063-0.153,0.121-0.229,0.185c-0.269,0.22,0.312-0.225-0.038,0.028c-0.34,0.246-0.675,0.49-1.021,0.722
				c-1.681,1.117-3.492,2.029-5.34,2.835c-0.123,0.055-0.248,0.108-0.371,0.161c-0.275,0.119,0.299-0.122-0.091,0.037
				c-0.277,0.114-0.552,0.228-0.83,0.338c-0.556,0.221-1.117,0.434-1.677,0.639c-1.199,0.438-2.411,0.843-3.629,1.223
				c-2.748,0.856-5.535,1.589-8.338,2.241c-6.458,1.506-13.33,2.659-19.687,3.511c-7.757,1.039-15.556,1.772-23.364,2.303
				c-8.387,0.568-16.791,0.896-25.2,1.011c-8.481,0.117-16.966,0.018-25.443-0.318c-8.158-0.322-16.31-0.86-24.433-1.693
				c-7.306-0.75-14.302-1.692-21.561-3.091c-5.961-1.147-11.904-2.555-17.638-4.568c-1.233-0.434-2.455-0.898-3.661-1.398
				c-0.364-0.15,0.137,0.061-0.131-0.056c-0.135-0.058-0.269-0.116-0.402-0.175c-0.283-0.123-0.565-0.248-0.845-0.377
				c-0.524-0.241-1.044-0.49-1.56-0.748c-0.961-0.483-1.906-1.004-2.822-1.57c-0.426-0.261-0.846-0.535-1.258-0.818
				c-0.191-0.132-0.381-0.266-0.569-0.404c-0.092-0.066-0.182-0.137-0.274-0.205c-0.296-0.215,0.236,0.193-0.048-0.035
				c-0.673-0.543-1.323-1.107-1.924-1.731c-1.48-1.537-3.818,0.805-2.339,2.339c3.02,3.134,7.036,5.182,11,6.849
				c5.258,2.209,10.785,3.741,16.339,4.996c6.988,1.577,14.076,2.684,21.181,3.565c7.92,0.982,15.878,1.647,23.846,2.094
				c8.49,0.476,16.995,0.697,25.497,0.702c8.485,0.005,16.971-0.205,25.443-0.648c8.054-0.424,16.099-1.053,24.114-1.964
				c7.158-0.815,14.301-1.837,21.366-3.243c5.679-1.132,11.343-2.492,16.798-4.446c4.049-1.45,8.128-3.196,11.478-5.946
				c0.584-0.48,1.14-0.998,1.638-1.566c0.111-0.129,0.219-0.258,0.325-0.392c0.584-0.73,0.487-1.536,0.477-2.419
				c-0.018-1.333-0.061-2.666-0.129-3.999c-0.282-5.328-0.981-10.645-2.099-15.86c-2.154-10.066-5.912-19.806-11.05-28.726
				c-5.024-8.729-11.396-16.715-18.79-23.554c-7.447-6.887-15.941-12.666-25.115-17.001c-9.431-4.458-19.48-7.397-29.822-8.758
				c-10.539-1.387-21.284-1.056-31.732,0.911c-10.103,1.902-19.902,5.415-28.934,10.319c-8.896,4.827-17.067,11.042-24.112,18.311
				c-7.022,7.245-12.969,15.563-17.51,24.574c-4.664,9.254-7.897,19.223-9.478,29.467C5.42,117.486,5.007,122.688,5,127.901
				C4.998,130.031,8.307,130.034,8.31,127.901z"/>
			<path fill="#1D1D1B" d="M106.991,23.656c-0.58,0-1.157,0-1.734,0c-0.722,0-1.444,0-2.167,0c-0.503,0-1.004-0.028-1.503-0.096
				c0.147,0.021,0.292,0.041,0.44,0.059c-0.911-0.123-1.801-0.366-2.65-0.723c0.132,0.056,0.265,0.111,0.396,0.167
				c-0.828-0.351-1.606-0.806-2.318-1.353c0.112,0.087,0.224,0.173,0.335,0.258c-0.714-0.552-1.356-1.194-1.909-1.908
				c0.087,0.112,0.172,0.224,0.259,0.335c-0.547-0.713-1.002-1.491-1.354-2.318c0.056,0.131,0.111,0.264,0.167,0.396
				c-0.355-0.847-0.599-1.739-0.723-2.649c0.019,0.147,0.04,0.293,0.058,0.441c-0.125-0.941-0.125-1.894,0-2.835
				c-0.019,0.146-0.039,0.293-0.058,0.439c0.124-0.911,0.368-1.8,0.723-2.647c-0.055,0.13-0.111,0.265-0.167,0.395
				c0.351-0.826,0.807-1.606,1.354-2.317c-0.087,0.111-0.172,0.223-0.259,0.335c0.552-0.715,1.194-1.357,1.909-1.91
				c-0.111,0.087-0.223,0.172-0.335,0.259c0.712-0.547,1.491-1.002,2.318-1.353c-0.132,0.057-0.264,0.112-0.396,0.166
				c0.849-0.355,1.739-0.598,2.65-0.723c-0.148,0.02-0.293,0.04-0.44,0.06c0.849-0.114,1.701-0.096,2.555-0.096
				c0.893,0,1.786,0,2.677,0c0.531,0,1.062,0.025,1.589,0.096c-0.146-0.02-0.293-0.04-0.44-0.06c0.911,0.125,1.801,0.368,2.648,0.723
				c-0.132-0.054-0.264-0.109-0.396-0.166c0.827,0.351,1.606,0.806,2.317,1.353c-0.11-0.087-0.222-0.172-0.335-0.259
				c0.715,0.552,1.357,1.195,1.91,1.91c-0.087-0.112-0.174-0.224-0.26-0.335c0.548,0.711,1.003,1.491,1.353,2.317
				c-0.055-0.13-0.111-0.265-0.166-0.395c0.355,0.847,0.599,1.737,0.724,2.647c-0.019-0.146-0.039-0.292-0.059-0.439
				c0.125,0.941,0.125,1.894,0,2.835c0.02-0.147,0.04-0.294,0.059-0.441c-0.125,0.911-0.368,1.802-0.724,2.649
				c0.055-0.132,0.111-0.265,0.166-0.396c-0.35,0.827-0.805,1.605-1.353,2.318c0.086-0.111,0.173-0.223,0.26-0.335
				c-0.553,0.714-1.195,1.356-1.91,1.908c0.113-0.085,0.225-0.171,0.335-0.258c-0.711,0.547-1.49,1.002-2.317,1.353
				c0.132-0.056,0.264-0.111,0.396-0.167c-0.848,0.356-1.737,0.6-2.648,0.723c0.147-0.018,0.294-0.038,0.44-0.059
				C107.938,23.623,107.465,23.655,106.991,23.656c-0.426,0-0.87,0.184-1.17,0.483c-0.287,0.288-0.503,0.758-0.485,1.171
				c0.021,0.428,0.161,0.871,0.485,1.169c0.322,0.298,0.722,0.486,1.17,0.484c0.83-0.002,1.664-0.097,2.478-0.257
				c0.662-0.129,1.311-0.326,1.935-0.582c0.745-0.307,1.465-0.643,2.14-1.086c0.653-0.426,1.277-0.914,1.842-1.453
				c0.574-0.548,1.079-1.166,1.54-1.809c0.384-0.534,0.717-1.102,0.991-1.698c0.341-0.732,0.636-1.491,0.83-2.276
				c0.195-0.8,0.311-1.629,0.352-2.452c0.038-0.828-0.039-1.643-0.158-2.464c-0.097-0.671-0.26-1.334-0.486-1.975
				c-0.265-0.75-0.592-1.487-0.993-2.175c-0.396-0.678-0.875-1.317-1.39-1.912c-0.43-0.497-0.907-0.952-1.424-1.361
				c-0.623-0.493-1.262-0.95-1.965-1.32c-0.707-0.371-1.455-0.681-2.217-0.913c-0.786-0.237-1.6-0.37-2.416-0.453
				c-0.77-0.078-1.55-0.051-2.323-0.051c-0.854,0-1.707,0-2.563,0c-1.233,0-2.482,0.152-3.664,0.514
				c-0.762,0.234-1.509,0.545-2.215,0.919c-0.701,0.372-1.341,0.829-1.961,1.324c-0.516,0.41-0.991,0.866-1.419,1.365
				c-0.515,0.596-0.99,1.237-1.386,1.918c-0.399,0.688-0.724,1.425-0.987,2.177c-0.224,0.64-0.386,1.303-0.482,1.977
				c-0.116,0.82-0.191,1.637-0.149,2.465c0.042,0.82,0.158,1.649,0.359,2.449c0.194,0.779,0.487,1.532,0.827,2.258
				c0.28,0.601,0.616,1.173,1.003,1.709c0.462,0.639,0.962,1.251,1.534,1.795c0.569,0.54,1.197,1.032,1.856,1.459
				c0.675,0.439,1.397,0.776,2.143,1.081c0.62,0.252,1.265,0.444,1.921,0.573c0.809,0.158,1.637,0.252,2.463,0.253
				c0.214,0,0.43,0,0.646,0c0.916,0,1.832,0,2.748,0c0.198,0,0.394,0,0.592,0c0.424,0,0.868-0.185,1.169-0.484
				c0.287-0.288,0.503-0.757,0.484-1.169c-0.02-0.427-0.159-0.873-0.484-1.171C107.836,23.842,107.439,23.656,106.991,23.656z"/>
		</g>
		<path fill="#FFFFFF" d="M163.822,60.417c-4.344-4.757-9.735-8.72-15.609-11.366c-1.484-0.668-2.9-1.042-4.529-0.592
			c-1.365,0.375-2.842,1.431-3.514,2.702c-0.722,1.364-1.083,3.017-0.594,4.529c0.444,1.369,1.334,2.897,2.701,3.513
			c2.893,1.303,5.618,2.924,8.167,4.809c1.803,1.447,3.504,3.011,5.064,4.719c2.08,2.277,6.231,2.268,8.313,0
			C166.058,66.297,166.04,62.847,163.822,60.417z"/>
		<path fill="#FFFFFF" d="M171.322,69.567c-7.564,0-7.578,11.757,0,11.757C178.887,81.324,178.899,69.567,171.322,69.567z"/>
	</g>
</svg>
